G04 EAGLE Gerber RS-274X export*
G75*
%MOMM*%
%FSLAX34Y34*%
%LPD*%
%INBottom Copper*%
%IPPOS*%
%AMOC8*
5,1,8,0,0,1.08239X$1,22.5*%
G01*
%ADD10P,1.429621X8X22.500000*%
%ADD11C,0.510000*%
%ADD12P,1.924489X8X292.500000*%
%ADD13C,1.258000*%
%ADD14C,0.756400*%
%ADD15C,0.254000*%
%ADD16C,0.711200*%

G36*
X378973Y3971D02*
X378973Y3971D01*
X379022Y3969D01*
X379130Y3991D01*
X379239Y4005D01*
X379285Y4023D01*
X379334Y4033D01*
X379432Y4081D01*
X379534Y4122D01*
X379575Y4151D01*
X379619Y4173D01*
X379703Y4244D01*
X379792Y4308D01*
X379824Y4347D01*
X379861Y4379D01*
X379925Y4469D01*
X379995Y4553D01*
X380016Y4598D01*
X380045Y4639D01*
X380083Y4742D01*
X380130Y4841D01*
X380140Y4890D01*
X380157Y4937D01*
X380169Y5046D01*
X380190Y5153D01*
X380187Y5203D01*
X380192Y5253D01*
X380177Y5361D01*
X380170Y5471D01*
X380155Y5518D01*
X380153Y5529D01*
X380153Y8703D01*
X381348Y11587D01*
X382294Y12532D01*
X382354Y12611D01*
X382422Y12683D01*
X382451Y12736D01*
X382488Y12784D01*
X382528Y12875D01*
X382576Y12961D01*
X382591Y13020D01*
X382615Y13076D01*
X382630Y13174D01*
X382655Y13269D01*
X382661Y13369D01*
X382665Y13390D01*
X382663Y13402D01*
X382665Y13430D01*
X382665Y20712D01*
X382653Y20810D01*
X382650Y20909D01*
X382633Y20967D01*
X382625Y21028D01*
X382589Y21120D01*
X382561Y21215D01*
X382531Y21267D01*
X382508Y21323D01*
X382450Y21403D01*
X382400Y21489D01*
X382334Y21564D01*
X382322Y21581D01*
X382312Y21588D01*
X382294Y21610D01*
X381348Y22555D01*
X380153Y25439D01*
X380153Y28561D01*
X381348Y31445D01*
X383555Y33652D01*
X386439Y34847D01*
X389561Y34847D01*
X392445Y33652D01*
X394652Y31445D01*
X395847Y28561D01*
X395847Y25439D01*
X394652Y22555D01*
X393706Y21610D01*
X393646Y21531D01*
X393578Y21459D01*
X393549Y21406D01*
X393512Y21358D01*
X393472Y21267D01*
X393424Y21181D01*
X393409Y21122D01*
X393385Y21066D01*
X393370Y20968D01*
X393345Y20873D01*
X393339Y20773D01*
X393335Y20752D01*
X393337Y20740D01*
X393335Y20712D01*
X393335Y13430D01*
X393347Y13332D01*
X393350Y13233D01*
X393367Y13175D01*
X393375Y13114D01*
X393411Y13022D01*
X393439Y12927D01*
X393469Y12875D01*
X393492Y12819D01*
X393550Y12739D01*
X393600Y12653D01*
X393666Y12578D01*
X393678Y12561D01*
X393688Y12554D01*
X393706Y12532D01*
X394652Y11587D01*
X395847Y8703D01*
X395847Y5510D01*
X395820Y5413D01*
X395819Y5363D01*
X395810Y5314D01*
X395817Y5205D01*
X395815Y5095D01*
X395827Y5047D01*
X395830Y4997D01*
X395864Y4893D01*
X395889Y4786D01*
X395913Y4742D01*
X395928Y4695D01*
X395987Y4602D01*
X396038Y4505D01*
X396071Y4468D01*
X396098Y4426D01*
X396178Y4351D01*
X396252Y4269D01*
X396293Y4242D01*
X396330Y4208D01*
X396426Y4155D01*
X396517Y4095D01*
X396565Y4078D01*
X396608Y4054D01*
X396714Y4027D01*
X396818Y3991D01*
X396868Y3987D01*
X396916Y3975D01*
X397077Y3965D01*
X529566Y3965D01*
X529684Y3980D01*
X529803Y3987D01*
X529841Y4000D01*
X529882Y4005D01*
X529992Y4048D01*
X530105Y4085D01*
X530140Y4107D01*
X530177Y4122D01*
X530273Y4191D01*
X530374Y4255D01*
X530402Y4285D01*
X530435Y4308D01*
X530511Y4400D01*
X530592Y4487D01*
X530612Y4522D01*
X530637Y4553D01*
X530688Y4661D01*
X530746Y4765D01*
X530756Y4805D01*
X530773Y4841D01*
X530795Y4958D01*
X530825Y5073D01*
X530829Y5133D01*
X530833Y5153D01*
X530831Y5174D01*
X530835Y5234D01*
X530835Y74348D01*
X530834Y74357D01*
X530835Y74366D01*
X530814Y74515D01*
X530795Y74663D01*
X530792Y74672D01*
X530791Y74681D01*
X530739Y74834D01*
X530073Y76440D01*
X530073Y78360D01*
X530808Y80134D01*
X532166Y81492D01*
X533940Y82227D01*
X535000Y82227D01*
X535118Y82242D01*
X535237Y82249D01*
X535275Y82262D01*
X535316Y82267D01*
X535426Y82310D01*
X535539Y82347D01*
X535574Y82369D01*
X535611Y82384D01*
X535707Y82453D01*
X535808Y82517D01*
X535836Y82547D01*
X535869Y82570D01*
X535945Y82662D01*
X536026Y82749D01*
X536046Y82784D01*
X536071Y82815D01*
X536122Y82923D01*
X536180Y83027D01*
X536190Y83067D01*
X536207Y83103D01*
X536229Y83220D01*
X536259Y83335D01*
X536263Y83395D01*
X536267Y83415D01*
X536265Y83436D01*
X536269Y83496D01*
X536269Y131304D01*
X536254Y131422D01*
X536247Y131541D01*
X536234Y131579D01*
X536229Y131620D01*
X536186Y131730D01*
X536149Y131843D01*
X536127Y131878D01*
X536112Y131915D01*
X536043Y132011D01*
X535979Y132112D01*
X535949Y132140D01*
X535926Y132173D01*
X535834Y132249D01*
X535747Y132330D01*
X535712Y132350D01*
X535681Y132375D01*
X535573Y132426D01*
X535469Y132484D01*
X535429Y132494D01*
X535393Y132511D01*
X535276Y132533D01*
X535161Y132563D01*
X535101Y132567D01*
X535081Y132571D01*
X535060Y132569D01*
X535000Y132573D01*
X533940Y132573D01*
X532166Y133308D01*
X530808Y134666D01*
X530073Y136440D01*
X530073Y138360D01*
X530739Y139966D01*
X530741Y139975D01*
X530746Y139984D01*
X530783Y140129D01*
X530823Y140273D01*
X530823Y140283D01*
X530825Y140292D01*
X530835Y140452D01*
X530835Y209666D01*
X530820Y209784D01*
X530813Y209903D01*
X530800Y209941D01*
X530795Y209982D01*
X530752Y210092D01*
X530715Y210205D01*
X530693Y210240D01*
X530678Y210277D01*
X530609Y210373D01*
X530545Y210474D01*
X530515Y210502D01*
X530492Y210535D01*
X530400Y210611D01*
X530313Y210692D01*
X530278Y210712D01*
X530247Y210737D01*
X530139Y210788D01*
X530035Y210846D01*
X529995Y210856D01*
X529959Y210873D01*
X529842Y210895D01*
X529727Y210925D01*
X529667Y210929D01*
X529647Y210933D01*
X529626Y210931D01*
X529566Y210935D01*
X5234Y210935D01*
X5116Y210920D01*
X4997Y210913D01*
X4959Y210900D01*
X4918Y210895D01*
X4808Y210852D01*
X4695Y210815D01*
X4660Y210793D01*
X4623Y210778D01*
X4527Y210709D01*
X4426Y210645D01*
X4398Y210615D01*
X4365Y210592D01*
X4289Y210500D01*
X4208Y210413D01*
X4188Y210378D01*
X4163Y210347D01*
X4112Y210239D01*
X4054Y210135D01*
X4044Y210095D01*
X4027Y210059D01*
X4005Y209942D01*
X3975Y209827D01*
X3971Y209767D01*
X3967Y209747D01*
X3969Y209726D01*
X3965Y209666D01*
X3965Y140452D01*
X3966Y140443D01*
X3965Y140434D01*
X3986Y140285D01*
X4005Y140137D01*
X4008Y140128D01*
X4009Y140119D01*
X4061Y139966D01*
X4727Y138360D01*
X4727Y136440D01*
X3992Y134666D01*
X2634Y133308D01*
X860Y132573D01*
X0Y132573D01*
X-118Y132558D01*
X-237Y132551D01*
X-275Y132538D01*
X-316Y132533D01*
X-426Y132490D01*
X-539Y132453D01*
X-574Y132431D01*
X-611Y132416D01*
X-707Y132347D01*
X-808Y132283D01*
X-836Y132253D01*
X-869Y132230D01*
X-945Y132138D01*
X-1026Y132051D01*
X-1046Y132016D01*
X-1071Y131985D01*
X-1122Y131877D01*
X-1180Y131773D01*
X-1190Y131733D01*
X-1207Y131697D01*
X-1229Y131580D01*
X-1259Y131465D01*
X-1263Y131405D01*
X-1267Y131385D01*
X-1265Y131364D01*
X-1269Y131304D01*
X-1269Y83496D01*
X-1254Y83378D01*
X-1247Y83259D01*
X-1234Y83221D01*
X-1229Y83180D01*
X-1186Y83070D01*
X-1149Y82957D01*
X-1127Y82922D01*
X-1112Y82885D01*
X-1043Y82789D01*
X-979Y82688D01*
X-949Y82660D01*
X-926Y82627D01*
X-834Y82551D01*
X-747Y82470D01*
X-712Y82450D01*
X-681Y82425D01*
X-573Y82374D01*
X-469Y82316D01*
X-429Y82306D01*
X-393Y82289D01*
X-276Y82267D01*
X-161Y82237D01*
X-101Y82233D01*
X-81Y82229D01*
X-60Y82231D01*
X0Y82227D01*
X860Y82227D01*
X2634Y81492D01*
X3992Y80134D01*
X4727Y78360D01*
X4727Y76440D01*
X4061Y74834D01*
X4059Y74825D01*
X4054Y74816D01*
X4017Y74671D01*
X3977Y74527D01*
X3977Y74517D01*
X3975Y74508D01*
X3965Y74348D01*
X3965Y5234D01*
X3980Y5116D01*
X3987Y4997D01*
X4000Y4959D01*
X4005Y4918D01*
X4048Y4808D01*
X4085Y4695D01*
X4107Y4660D01*
X4122Y4623D01*
X4191Y4527D01*
X4255Y4426D01*
X4285Y4398D01*
X4308Y4365D01*
X4400Y4289D01*
X4487Y4208D01*
X4522Y4188D01*
X4553Y4163D01*
X4661Y4112D01*
X4765Y4054D01*
X4805Y4044D01*
X4841Y4027D01*
X4958Y4005D01*
X5073Y3975D01*
X5133Y3971D01*
X5153Y3967D01*
X5174Y3969D01*
X5234Y3965D01*
X378923Y3965D01*
X378973Y3971D01*
G37*
%LPC*%
G36*
X155461Y14665D02*
X155461Y14665D01*
X153500Y15477D01*
X128139Y40838D01*
X127327Y42799D01*
X127327Y72779D01*
X128139Y74740D01*
X199222Y145823D01*
X201183Y146635D01*
X283885Y146635D01*
X285846Y145823D01*
X301048Y130621D01*
X301087Y130590D01*
X301120Y130554D01*
X301212Y130493D01*
X301299Y130426D01*
X301345Y130406D01*
X301386Y130379D01*
X301490Y130343D01*
X301591Y130300D01*
X301640Y130292D01*
X301687Y130276D01*
X301796Y130267D01*
X301905Y130250D01*
X301954Y130254D01*
X302004Y130250D01*
X302112Y130269D01*
X302221Y130279D01*
X302268Y130296D01*
X302317Y130305D01*
X302417Y130350D01*
X302521Y130387D01*
X302562Y130415D01*
X302607Y130435D01*
X302693Y130504D01*
X302784Y130566D01*
X302817Y130603D01*
X302856Y130634D01*
X302922Y130722D01*
X302994Y130804D01*
X303017Y130848D01*
X303047Y130888D01*
X303118Y131033D01*
X304365Y134045D01*
X306509Y136189D01*
X309310Y137349D01*
X312342Y137349D01*
X315143Y136189D01*
X317287Y134045D01*
X318447Y131244D01*
X318447Y131177D01*
X318459Y131079D01*
X318462Y130980D01*
X318479Y130922D01*
X318487Y130862D01*
X318523Y130770D01*
X318551Y130675D01*
X318581Y130623D01*
X318604Y130566D01*
X318662Y130486D01*
X318712Y130401D01*
X318778Y130325D01*
X318790Y130309D01*
X318800Y130301D01*
X318818Y130280D01*
X335526Y113572D01*
X335604Y113512D01*
X335676Y113444D01*
X335729Y113415D01*
X335777Y113378D01*
X335868Y113338D01*
X335955Y113290D01*
X336013Y113275D01*
X336069Y113251D01*
X336167Y113236D01*
X336263Y113211D01*
X336363Y113205D01*
X336383Y113201D01*
X336395Y113203D01*
X336423Y113201D01*
X407712Y113201D01*
X407810Y113213D01*
X407909Y113216D01*
X407967Y113233D01*
X408028Y113241D01*
X408120Y113277D01*
X408215Y113305D01*
X408267Y113335D01*
X408323Y113358D01*
X408403Y113416D01*
X408489Y113466D01*
X408564Y113532D01*
X408581Y113544D01*
X408588Y113554D01*
X408610Y113572D01*
X409555Y114518D01*
X412439Y115713D01*
X415561Y115713D01*
X418445Y114518D01*
X419390Y113572D01*
X419469Y113512D01*
X419541Y113444D01*
X419594Y113415D01*
X419642Y113378D01*
X419733Y113338D01*
X419819Y113290D01*
X419878Y113275D01*
X419934Y113251D01*
X420032Y113236D01*
X420127Y113211D01*
X420227Y113205D01*
X420248Y113201D01*
X420260Y113203D01*
X420288Y113201D01*
X443527Y113201D01*
X443625Y113213D01*
X443724Y113216D01*
X443782Y113233D01*
X443842Y113241D01*
X443934Y113277D01*
X444029Y113305D01*
X444081Y113335D01*
X444138Y113358D01*
X444218Y113416D01*
X444303Y113466D01*
X444379Y113532D01*
X444395Y113544D01*
X444403Y113554D01*
X444424Y113572D01*
X451136Y120284D01*
X451196Y120362D01*
X451264Y120434D01*
X451293Y120487D01*
X451330Y120535D01*
X451370Y120626D01*
X451418Y120713D01*
X451433Y120771D01*
X451457Y120827D01*
X451472Y120925D01*
X451497Y121021D01*
X451503Y121121D01*
X451507Y121141D01*
X451505Y121153D01*
X451507Y121181D01*
X451507Y122248D01*
X452667Y125049D01*
X454811Y127193D01*
X457612Y128353D01*
X460644Y128353D01*
X463445Y127193D01*
X464199Y126439D01*
X464277Y126378D01*
X464349Y126310D01*
X464402Y126281D01*
X464450Y126244D01*
X464541Y126204D01*
X464628Y126156D01*
X464686Y126141D01*
X464742Y126117D01*
X464840Y126102D01*
X464936Y126077D01*
X465036Y126071D01*
X465056Y126067D01*
X465068Y126069D01*
X465096Y126067D01*
X489393Y126067D01*
X489491Y126079D01*
X489590Y126082D01*
X489648Y126099D01*
X489708Y126107D01*
X489800Y126143D01*
X489895Y126171D01*
X489947Y126201D01*
X490004Y126224D01*
X490084Y126282D01*
X490169Y126332D01*
X490245Y126398D01*
X490261Y126410D01*
X490269Y126420D01*
X490290Y126438D01*
X507694Y143842D01*
X507754Y143920D01*
X507822Y143992D01*
X507851Y144045D01*
X507888Y144093D01*
X507928Y144184D01*
X507976Y144271D01*
X507991Y144329D01*
X508015Y144385D01*
X508030Y144483D01*
X508055Y144579D01*
X508061Y144679D01*
X508065Y144699D01*
X508063Y144711D01*
X508065Y144739D01*
X508065Y145875D01*
X508053Y145973D01*
X508050Y146072D01*
X508033Y146131D01*
X508025Y146191D01*
X507989Y146283D01*
X507961Y146378D01*
X507931Y146430D01*
X507908Y146486D01*
X507850Y146567D01*
X507800Y146652D01*
X507734Y146727D01*
X507722Y146744D01*
X507712Y146752D01*
X507694Y146773D01*
X504622Y149845D01*
X503045Y153650D01*
X503045Y170350D01*
X504622Y174155D01*
X507535Y177068D01*
X511340Y178645D01*
X515460Y178645D01*
X519265Y177068D01*
X522178Y174155D01*
X523755Y170350D01*
X523755Y153650D01*
X522178Y149845D01*
X519106Y146773D01*
X519046Y146694D01*
X518978Y146622D01*
X518949Y146569D01*
X518912Y146521D01*
X518872Y146430D01*
X518824Y146344D01*
X518809Y146285D01*
X518785Y146230D01*
X518770Y146132D01*
X518745Y146036D01*
X518739Y145936D01*
X518735Y145916D01*
X518737Y145903D01*
X518735Y145875D01*
X518735Y140943D01*
X517923Y138982D01*
X495150Y116209D01*
X493189Y115397D01*
X465096Y115397D01*
X464998Y115385D01*
X464899Y115382D01*
X464841Y115365D01*
X464781Y115357D01*
X464689Y115321D01*
X464594Y115293D01*
X464541Y115263D01*
X464485Y115240D01*
X464405Y115182D01*
X464320Y115132D01*
X464244Y115066D01*
X464228Y115054D01*
X464220Y115044D01*
X464199Y115025D01*
X463445Y114271D01*
X460644Y113111D01*
X459577Y113111D01*
X459479Y113099D01*
X459380Y113096D01*
X459322Y113079D01*
X459262Y113071D01*
X459170Y113035D01*
X459075Y113007D01*
X459023Y112977D01*
X458966Y112954D01*
X458886Y112896D01*
X458801Y112846D01*
X458725Y112780D01*
X458709Y112768D01*
X458701Y112758D01*
X458680Y112740D01*
X449284Y103343D01*
X447323Y102531D01*
X420288Y102531D01*
X420190Y102519D01*
X420091Y102516D01*
X420033Y102499D01*
X419972Y102491D01*
X419880Y102455D01*
X419785Y102427D01*
X419733Y102397D01*
X419677Y102374D01*
X419597Y102316D01*
X419511Y102266D01*
X419436Y102200D01*
X419419Y102188D01*
X419412Y102178D01*
X419390Y102160D01*
X418445Y101214D01*
X415561Y100019D01*
X412439Y100019D01*
X409555Y101214D01*
X408610Y102160D01*
X408531Y102220D01*
X408459Y102288D01*
X408406Y102317D01*
X408358Y102354D01*
X408267Y102394D01*
X408181Y102442D01*
X408122Y102457D01*
X408066Y102481D01*
X407968Y102496D01*
X407873Y102521D01*
X407773Y102527D01*
X407752Y102531D01*
X407740Y102529D01*
X407712Y102531D01*
X365204Y102531D01*
X365086Y102516D01*
X364967Y102509D01*
X364929Y102496D01*
X364888Y102491D01*
X364778Y102448D01*
X364665Y102411D01*
X364630Y102389D01*
X364593Y102374D01*
X364497Y102305D01*
X364396Y102241D01*
X364368Y102211D01*
X364335Y102188D01*
X364259Y102096D01*
X364178Y102009D01*
X364158Y101974D01*
X364133Y101943D01*
X364082Y101835D01*
X364024Y101731D01*
X364014Y101691D01*
X363997Y101655D01*
X363975Y101538D01*
X363945Y101423D01*
X363941Y101363D01*
X363937Y101343D01*
X363939Y101322D01*
X363935Y101262D01*
X363935Y96184D01*
X363950Y96066D01*
X363957Y95947D01*
X363970Y95909D01*
X363975Y95868D01*
X364018Y95758D01*
X364055Y95645D01*
X364077Y95610D01*
X364092Y95573D01*
X364161Y95477D01*
X364225Y95376D01*
X364255Y95348D01*
X364278Y95315D01*
X364370Y95239D01*
X364457Y95158D01*
X364492Y95138D01*
X364523Y95113D01*
X364631Y95062D01*
X364735Y95004D01*
X364775Y94994D01*
X364811Y94977D01*
X364928Y94955D01*
X365043Y94925D01*
X365103Y94921D01*
X365123Y94917D01*
X365144Y94919D01*
X365204Y94915D01*
X368366Y94915D01*
X370797Y93908D01*
X372658Y92047D01*
X373665Y89616D01*
X373665Y86084D01*
X372658Y83653D01*
X371402Y82397D01*
X371329Y82303D01*
X371250Y82214D01*
X371232Y82178D01*
X371207Y82146D01*
X371160Y82037D01*
X371106Y81931D01*
X371097Y81892D01*
X371081Y81854D01*
X371062Y81737D01*
X371036Y81621D01*
X371037Y81580D01*
X371031Y81540D01*
X371042Y81422D01*
X371046Y81303D01*
X371057Y81264D01*
X371061Y81224D01*
X371101Y81112D01*
X371134Y80997D01*
X371155Y80962D01*
X371168Y80924D01*
X371235Y80826D01*
X371296Y80723D01*
X371336Y80678D01*
X371347Y80661D01*
X371362Y80648D01*
X371402Y80602D01*
X372658Y79347D01*
X373665Y76916D01*
X373665Y73384D01*
X372658Y70953D01*
X371402Y69698D01*
X371329Y69603D01*
X371250Y69514D01*
X371232Y69478D01*
X371207Y69446D01*
X371160Y69337D01*
X371106Y69231D01*
X371097Y69192D01*
X371081Y69154D01*
X371062Y69037D01*
X371036Y68921D01*
X371037Y68880D01*
X371031Y68840D01*
X371042Y68722D01*
X371046Y68603D01*
X371057Y68564D01*
X371061Y68524D01*
X371101Y68411D01*
X371134Y68297D01*
X371155Y68263D01*
X371168Y68224D01*
X371235Y68126D01*
X371296Y68023D01*
X371336Y67978D01*
X371347Y67961D01*
X371362Y67948D01*
X371402Y67903D01*
X372658Y66647D01*
X373665Y64216D01*
X373665Y60684D01*
X372658Y58253D01*
X370797Y56392D01*
X368366Y55385D01*
X348834Y55385D01*
X346403Y56392D01*
X346052Y56744D01*
X345974Y56804D01*
X345901Y56872D01*
X345848Y56901D01*
X345801Y56938D01*
X345710Y56978D01*
X345623Y57026D01*
X345564Y57041D01*
X345509Y57065D01*
X345411Y57080D01*
X345315Y57105D01*
X345215Y57111D01*
X345195Y57115D01*
X345182Y57113D01*
X345154Y57115D01*
X318335Y57115D01*
X318237Y57103D01*
X318138Y57100D01*
X318080Y57083D01*
X318020Y57075D01*
X317928Y57039D01*
X317833Y57011D01*
X317781Y56981D01*
X317724Y56958D01*
X317644Y56900D01*
X317559Y56850D01*
X317483Y56784D01*
X317467Y56772D01*
X317459Y56762D01*
X317438Y56744D01*
X309616Y48921D01*
X309531Y48812D01*
X309442Y48705D01*
X309433Y48686D01*
X309421Y48670D01*
X309366Y48542D01*
X309306Y48417D01*
X309303Y48397D01*
X309295Y48378D01*
X309273Y48240D01*
X309247Y48104D01*
X309248Y48084D01*
X309245Y48064D01*
X309258Y47925D01*
X309266Y47787D01*
X309273Y47768D01*
X309275Y47748D01*
X309322Y47616D01*
X309364Y47485D01*
X309375Y47467D01*
X309382Y47448D01*
X309460Y47333D01*
X309535Y47216D01*
X309549Y47202D01*
X309561Y47185D01*
X309665Y47093D01*
X309766Y46998D01*
X309784Y46988D01*
X309799Y46975D01*
X309923Y46911D01*
X310045Y46844D01*
X310064Y46839D01*
X310082Y46830D01*
X310218Y46800D01*
X310353Y46765D01*
X310381Y46763D01*
X310393Y46760D01*
X310413Y46761D01*
X310513Y46755D01*
X318466Y46755D01*
X324903Y40318D01*
X324997Y40245D01*
X325086Y40166D01*
X325122Y40148D01*
X325154Y40123D01*
X325263Y40076D01*
X325369Y40022D01*
X325408Y40013D01*
X325446Y39997D01*
X325563Y39978D01*
X325679Y39952D01*
X325720Y39953D01*
X325760Y39947D01*
X325878Y39958D01*
X325997Y39962D01*
X326036Y39973D01*
X326076Y39977D01*
X326189Y40017D01*
X326303Y40050D01*
X326338Y40071D01*
X326376Y40085D01*
X326474Y40152D01*
X326577Y40212D01*
X326622Y40252D01*
X326639Y40263D01*
X326652Y40278D01*
X326698Y40318D01*
X333134Y46755D01*
X343866Y46755D01*
X351455Y39166D01*
X351455Y28434D01*
X343866Y20845D01*
X333134Y20845D01*
X326698Y27282D01*
X326603Y27355D01*
X326514Y27434D01*
X326478Y27452D01*
X326446Y27477D01*
X326337Y27524D01*
X326231Y27578D01*
X326192Y27587D01*
X326154Y27603D01*
X326037Y27622D01*
X325921Y27648D01*
X325880Y27647D01*
X325840Y27653D01*
X325722Y27642D01*
X325603Y27638D01*
X325564Y27627D01*
X325524Y27623D01*
X325411Y27583D01*
X325297Y27550D01*
X325263Y27529D01*
X325224Y27515D01*
X325126Y27449D01*
X325023Y27388D01*
X324978Y27348D01*
X324961Y27337D01*
X324948Y27322D01*
X324903Y27282D01*
X318466Y20845D01*
X307734Y20845D01*
X301298Y27282D01*
X301203Y27355D01*
X301114Y27434D01*
X301078Y27452D01*
X301046Y27477D01*
X300937Y27524D01*
X300831Y27578D01*
X300792Y27587D01*
X300754Y27603D01*
X300637Y27622D01*
X300521Y27648D01*
X300480Y27647D01*
X300440Y27653D01*
X300322Y27642D01*
X300203Y27638D01*
X300164Y27627D01*
X300124Y27623D01*
X300011Y27583D01*
X299897Y27550D01*
X299863Y27529D01*
X299824Y27515D01*
X299726Y27449D01*
X299623Y27388D01*
X299578Y27348D01*
X299561Y27337D01*
X299548Y27322D01*
X299503Y27282D01*
X293066Y20845D01*
X282334Y20845D01*
X275898Y27282D01*
X275803Y27355D01*
X275714Y27434D01*
X275678Y27452D01*
X275646Y27477D01*
X275537Y27524D01*
X275431Y27578D01*
X275392Y27587D01*
X275354Y27603D01*
X275237Y27622D01*
X275121Y27648D01*
X275080Y27647D01*
X275040Y27653D01*
X274922Y27642D01*
X274803Y27638D01*
X274764Y27627D01*
X274724Y27623D01*
X274611Y27583D01*
X274497Y27550D01*
X274463Y27529D01*
X274424Y27515D01*
X274326Y27449D01*
X274223Y27388D01*
X274178Y27348D01*
X274161Y27337D01*
X274148Y27322D01*
X274103Y27282D01*
X267666Y20845D01*
X256934Y20845D01*
X250498Y27282D01*
X250403Y27355D01*
X250314Y27434D01*
X250278Y27452D01*
X250246Y27477D01*
X250137Y27524D01*
X250031Y27578D01*
X249992Y27587D01*
X249954Y27603D01*
X249837Y27622D01*
X249721Y27648D01*
X249680Y27647D01*
X249640Y27653D01*
X249522Y27642D01*
X249403Y27638D01*
X249364Y27627D01*
X249324Y27623D01*
X249211Y27583D01*
X249097Y27550D01*
X249063Y27529D01*
X249024Y27515D01*
X248926Y27449D01*
X248823Y27388D01*
X248778Y27348D01*
X248761Y27337D01*
X248748Y27322D01*
X248703Y27282D01*
X242266Y20845D01*
X231493Y20845D01*
X231476Y20854D01*
X231444Y20879D01*
X231335Y20926D01*
X231229Y20980D01*
X231189Y20989D01*
X231152Y21005D01*
X231035Y21024D01*
X230919Y21050D01*
X230878Y21049D01*
X230838Y21055D01*
X230720Y21044D01*
X230601Y21040D01*
X230562Y21029D01*
X230522Y21025D01*
X230410Y20985D01*
X230295Y20952D01*
X230260Y20931D01*
X230222Y20918D01*
X230124Y20851D01*
X230021Y20790D01*
X229976Y20751D01*
X229959Y20739D01*
X229946Y20724D01*
X229900Y20684D01*
X224694Y15477D01*
X222733Y14665D01*
X155461Y14665D01*
G37*
%LPD*%
G36*
X292963Y60497D02*
X292963Y60497D01*
X293062Y60500D01*
X293120Y60517D01*
X293180Y60525D01*
X293272Y60561D01*
X293367Y60589D01*
X293419Y60619D01*
X293476Y60642D01*
X293556Y60700D01*
X293641Y60750D01*
X293717Y60816D01*
X293733Y60828D01*
X293741Y60838D01*
X293762Y60856D01*
X312578Y79673D01*
X314539Y80485D01*
X344646Y80485D01*
X344784Y80502D01*
X344923Y80515D01*
X344942Y80522D01*
X344962Y80525D01*
X345091Y80576D01*
X345222Y80623D01*
X345239Y80634D01*
X345258Y80642D01*
X345370Y80723D01*
X345485Y80801D01*
X345499Y80817D01*
X345515Y80828D01*
X345604Y80936D01*
X345696Y81040D01*
X345705Y81058D01*
X345718Y81073D01*
X345777Y81199D01*
X345840Y81323D01*
X345845Y81343D01*
X345853Y81361D01*
X345879Y81498D01*
X345910Y81633D01*
X345909Y81654D01*
X345913Y81673D01*
X345904Y81812D01*
X345900Y81951D01*
X345895Y81971D01*
X345893Y81991D01*
X345851Y82123D01*
X345812Y82257D01*
X345802Y82274D01*
X345795Y82293D01*
X345721Y82411D01*
X345650Y82531D01*
X345632Y82552D01*
X345625Y82562D01*
X345610Y82576D01*
X345544Y82651D01*
X344542Y83653D01*
X343535Y86084D01*
X343535Y89616D01*
X344542Y92047D01*
X346403Y93908D01*
X348834Y94915D01*
X351996Y94915D01*
X352114Y94930D01*
X352233Y94937D01*
X352271Y94950D01*
X352312Y94955D01*
X352422Y94998D01*
X352535Y95035D01*
X352570Y95057D01*
X352607Y95072D01*
X352703Y95141D01*
X352804Y95205D01*
X352832Y95235D01*
X352865Y95258D01*
X352941Y95350D01*
X353022Y95437D01*
X353042Y95472D01*
X353067Y95503D01*
X353118Y95611D01*
X353176Y95715D01*
X353186Y95755D01*
X353203Y95791D01*
X353225Y95908D01*
X353255Y96023D01*
X353259Y96083D01*
X353263Y96103D01*
X353261Y96124D01*
X353265Y96184D01*
X353265Y101262D01*
X353250Y101380D01*
X353243Y101499D01*
X353230Y101537D01*
X353225Y101578D01*
X353182Y101688D01*
X353145Y101801D01*
X353123Y101836D01*
X353108Y101873D01*
X353039Y101969D01*
X352975Y102070D01*
X352945Y102098D01*
X352922Y102131D01*
X352830Y102207D01*
X352743Y102288D01*
X352708Y102308D01*
X352677Y102333D01*
X352569Y102384D01*
X352465Y102442D01*
X352425Y102452D01*
X352389Y102469D01*
X352272Y102491D01*
X352157Y102521D01*
X352097Y102525D01*
X352077Y102529D01*
X352056Y102527D01*
X351996Y102531D01*
X332627Y102531D01*
X330666Y103343D01*
X324471Y109538D01*
X324362Y109623D01*
X324255Y109712D01*
X324236Y109721D01*
X324220Y109733D01*
X324092Y109788D01*
X323967Y109848D01*
X323947Y109851D01*
X323928Y109859D01*
X323790Y109881D01*
X323654Y109907D01*
X323634Y109906D01*
X323614Y109909D01*
X323475Y109896D01*
X323337Y109888D01*
X323318Y109881D01*
X323298Y109879D01*
X323166Y109832D01*
X323035Y109790D01*
X323017Y109779D01*
X322998Y109772D01*
X322883Y109694D01*
X322766Y109619D01*
X322752Y109605D01*
X322735Y109593D01*
X322643Y109489D01*
X322548Y109388D01*
X322538Y109370D01*
X322525Y109355D01*
X322461Y109231D01*
X322394Y109109D01*
X322389Y109090D01*
X322380Y109072D01*
X322350Y108936D01*
X322315Y108801D01*
X322313Y108773D01*
X322310Y108761D01*
X322311Y108741D01*
X322305Y108641D01*
X322305Y107924D01*
X321145Y105123D01*
X319001Y102979D01*
X316200Y101819D01*
X313168Y101819D01*
X310367Y102979D01*
X308223Y105123D01*
X307063Y107924D01*
X307063Y108991D01*
X307051Y109089D01*
X307048Y109188D01*
X307031Y109246D01*
X307023Y109306D01*
X306987Y109398D01*
X306959Y109493D01*
X306929Y109545D01*
X306906Y109602D01*
X306848Y109682D01*
X306798Y109767D01*
X306732Y109843D01*
X306720Y109859D01*
X306710Y109867D01*
X306692Y109888D01*
X280986Y135594D01*
X280908Y135654D01*
X280836Y135722D01*
X280783Y135751D01*
X280735Y135788D01*
X280644Y135828D01*
X280557Y135876D01*
X280499Y135891D01*
X280443Y135915D01*
X280345Y135930D01*
X280249Y135955D01*
X280149Y135961D01*
X280129Y135965D01*
X280117Y135963D01*
X280089Y135965D01*
X263922Y135965D01*
X263873Y135959D01*
X263823Y135961D01*
X263715Y135939D01*
X263606Y135925D01*
X263560Y135907D01*
X263512Y135897D01*
X263413Y135849D01*
X263311Y135808D01*
X263271Y135779D01*
X263226Y135757D01*
X263142Y135686D01*
X263053Y135622D01*
X263022Y135583D01*
X262984Y135551D01*
X262921Y135461D01*
X262851Y135377D01*
X262829Y135332D01*
X262801Y135291D01*
X262762Y135188D01*
X262715Y135089D01*
X262706Y135040D01*
X262688Y134994D01*
X262676Y134884D01*
X262655Y134777D01*
X262658Y134727D01*
X262653Y134678D01*
X262668Y134569D01*
X262675Y134459D01*
X262690Y134412D01*
X262697Y134363D01*
X262749Y134210D01*
X263847Y131561D01*
X263847Y128439D01*
X262652Y125555D01*
X261706Y124610D01*
X261646Y124531D01*
X261578Y124459D01*
X261549Y124406D01*
X261512Y124358D01*
X261472Y124267D01*
X261424Y124181D01*
X261409Y124122D01*
X261385Y124066D01*
X261370Y123968D01*
X261345Y123873D01*
X261339Y123773D01*
X261335Y123752D01*
X261337Y123740D01*
X261335Y123712D01*
X261335Y81735D01*
X261347Y81637D01*
X261350Y81538D01*
X261367Y81480D01*
X261375Y81420D01*
X261411Y81328D01*
X261439Y81233D01*
X261469Y81181D01*
X261492Y81124D01*
X261550Y81044D01*
X261600Y80959D01*
X261666Y80883D01*
X261678Y80867D01*
X261688Y80859D01*
X261706Y80838D01*
X266523Y76022D01*
X267335Y74061D01*
X267335Y71288D01*
X267347Y71190D01*
X267350Y71091D01*
X267367Y71033D01*
X267375Y70972D01*
X267411Y70880D01*
X267439Y70785D01*
X267469Y70733D01*
X267492Y70677D01*
X267550Y70597D01*
X267600Y70511D01*
X267666Y70436D01*
X267678Y70419D01*
X267688Y70412D01*
X267706Y70390D01*
X268652Y69445D01*
X269847Y66561D01*
X269847Y63439D01*
X269350Y62240D01*
X269337Y62192D01*
X269316Y62147D01*
X269295Y62039D01*
X269266Y61933D01*
X269265Y61883D01*
X269256Y61834D01*
X269263Y61725D01*
X269261Y61615D01*
X269272Y61567D01*
X269276Y61517D01*
X269309Y61413D01*
X269335Y61306D01*
X269358Y61262D01*
X269374Y61215D01*
X269432Y61122D01*
X269484Y61025D01*
X269517Y60988D01*
X269544Y60946D01*
X269624Y60871D01*
X269698Y60789D01*
X269739Y60762D01*
X269775Y60728D01*
X269872Y60675D01*
X269963Y60615D01*
X270010Y60598D01*
X270054Y60574D01*
X270160Y60547D01*
X270264Y60511D01*
X270314Y60507D01*
X270362Y60495D01*
X270523Y60485D01*
X292865Y60485D01*
X292963Y60497D01*
G37*
%LPC*%
G36*
X440439Y22153D02*
X440439Y22153D01*
X437555Y23348D01*
X435348Y25555D01*
X434153Y28439D01*
X434153Y29777D01*
X434141Y29875D01*
X434138Y29974D01*
X434121Y30032D01*
X434113Y30092D01*
X434077Y30184D01*
X434049Y30279D01*
X434019Y30331D01*
X433996Y30388D01*
X433938Y30468D01*
X433888Y30553D01*
X433822Y30629D01*
X433810Y30645D01*
X433800Y30653D01*
X433782Y30674D01*
X421959Y42497D01*
X421935Y42515D01*
X421916Y42538D01*
X421810Y42612D01*
X421707Y42692D01*
X421680Y42704D01*
X421656Y42721D01*
X421535Y42767D01*
X421415Y42818D01*
X421386Y42823D01*
X421359Y42833D01*
X421230Y42848D01*
X421101Y42868D01*
X421072Y42865D01*
X421043Y42869D01*
X420914Y42850D01*
X420785Y42838D01*
X420757Y42828D01*
X420728Y42824D01*
X420575Y42772D01*
X420366Y42685D01*
X400834Y42685D01*
X398403Y43692D01*
X396542Y45553D01*
X395535Y47984D01*
X395535Y51516D01*
X396542Y53947D01*
X397798Y55203D01*
X397871Y55297D01*
X397950Y55386D01*
X397968Y55422D01*
X397993Y55454D01*
X398040Y55563D01*
X398094Y55669D01*
X398103Y55708D01*
X398119Y55746D01*
X398138Y55863D01*
X398164Y55979D01*
X398163Y56020D01*
X398169Y56060D01*
X398158Y56178D01*
X398154Y56297D01*
X398143Y56336D01*
X398139Y56376D01*
X398099Y56488D01*
X398066Y56603D01*
X398045Y56638D01*
X398032Y56676D01*
X397965Y56774D01*
X397904Y56877D01*
X397864Y56922D01*
X397853Y56939D01*
X397838Y56952D01*
X397798Y56998D01*
X396542Y58253D01*
X395535Y60684D01*
X395535Y64216D01*
X396542Y66647D01*
X397544Y67649D01*
X397629Y67758D01*
X397718Y67865D01*
X397726Y67884D01*
X397739Y67900D01*
X397794Y68027D01*
X397853Y68153D01*
X397857Y68173D01*
X397865Y68192D01*
X397887Y68330D01*
X397913Y68466D01*
X397912Y68486D01*
X397915Y68506D01*
X397902Y68645D01*
X397893Y68783D01*
X397887Y68802D01*
X397885Y68822D01*
X397838Y68954D01*
X397795Y69085D01*
X397784Y69103D01*
X397778Y69122D01*
X397700Y69237D01*
X397625Y69354D01*
X397610Y69368D01*
X397599Y69385D01*
X397495Y69477D01*
X397394Y69572D01*
X397376Y69582D01*
X397361Y69595D01*
X397237Y69658D01*
X397115Y69726D01*
X397095Y69731D01*
X397077Y69740D01*
X396942Y69770D01*
X396807Y69805D01*
X396779Y69807D01*
X396767Y69810D01*
X396747Y69809D01*
X396646Y69815D01*
X392438Y69815D01*
X392340Y69803D01*
X392241Y69800D01*
X392183Y69783D01*
X392122Y69775D01*
X392030Y69739D01*
X391935Y69711D01*
X391883Y69681D01*
X391827Y69658D01*
X391747Y69600D01*
X391661Y69550D01*
X391586Y69484D01*
X391569Y69472D01*
X391562Y69462D01*
X391540Y69444D01*
X389445Y67348D01*
X386561Y66153D01*
X383439Y66153D01*
X380555Y67348D01*
X378348Y69555D01*
X377153Y72439D01*
X377153Y75561D01*
X378348Y78445D01*
X380555Y80652D01*
X383439Y81847D01*
X386561Y81847D01*
X389616Y80581D01*
X389625Y80579D01*
X389633Y80574D01*
X389778Y80537D01*
X389922Y80497D01*
X389932Y80497D01*
X389941Y80495D01*
X390101Y80485D01*
X396646Y80485D01*
X396784Y80502D01*
X396923Y80515D01*
X396942Y80522D01*
X396962Y80525D01*
X397091Y80576D01*
X397222Y80623D01*
X397239Y80634D01*
X397258Y80642D01*
X397370Y80723D01*
X397485Y80801D01*
X397499Y80817D01*
X397515Y80828D01*
X397604Y80936D01*
X397696Y81040D01*
X397705Y81058D01*
X397718Y81073D01*
X397777Y81199D01*
X397840Y81323D01*
X397845Y81343D01*
X397853Y81361D01*
X397879Y81498D01*
X397910Y81633D01*
X397909Y81654D01*
X397913Y81673D01*
X397904Y81812D01*
X397900Y81951D01*
X397895Y81971D01*
X397893Y81991D01*
X397851Y82123D01*
X397812Y82257D01*
X397802Y82274D01*
X397795Y82293D01*
X397721Y82411D01*
X397650Y82531D01*
X397632Y82552D01*
X397625Y82562D01*
X397610Y82576D01*
X397544Y82651D01*
X396542Y83653D01*
X395535Y86084D01*
X395535Y89616D01*
X396542Y92047D01*
X398403Y93908D01*
X400834Y94915D01*
X420366Y94915D01*
X422797Y93908D01*
X423998Y92706D01*
X424076Y92646D01*
X424149Y92578D01*
X424202Y92549D01*
X424249Y92512D01*
X424340Y92472D01*
X424427Y92424D01*
X424486Y92409D01*
X424541Y92385D01*
X424639Y92370D01*
X424735Y92345D01*
X424835Y92339D01*
X424855Y92335D01*
X424868Y92337D01*
X424896Y92335D01*
X445061Y92335D01*
X447022Y91523D01*
X480523Y58022D01*
X481335Y56061D01*
X481335Y52288D01*
X481347Y52190D01*
X481350Y52091D01*
X481367Y52033D01*
X481375Y51972D01*
X481411Y51880D01*
X481439Y51785D01*
X481469Y51733D01*
X481492Y51677D01*
X481550Y51597D01*
X481600Y51511D01*
X481666Y51436D01*
X481678Y51419D01*
X481688Y51412D01*
X481706Y51390D01*
X482652Y50445D01*
X483847Y47561D01*
X483847Y44439D01*
X482652Y41555D01*
X480445Y39348D01*
X477561Y38153D01*
X474439Y38153D01*
X471555Y39348D01*
X469348Y41555D01*
X468153Y44439D01*
X468153Y47561D01*
X469348Y50445D01*
X470282Y51379D01*
X470355Y51473D01*
X470434Y51562D01*
X470452Y51598D01*
X470477Y51630D01*
X470524Y51739D01*
X470578Y51845D01*
X470587Y51885D01*
X470603Y51922D01*
X470622Y52039D01*
X470648Y52156D01*
X470647Y52196D01*
X470653Y52236D01*
X470642Y52355D01*
X470638Y52473D01*
X470627Y52512D01*
X470623Y52553D01*
X470583Y52665D01*
X470550Y52779D01*
X470529Y52814D01*
X470516Y52852D01*
X470449Y52950D01*
X470388Y53053D01*
X470348Y53098D01*
X470337Y53115D01*
X470322Y53128D01*
X470282Y53174D01*
X442162Y81294D01*
X442084Y81354D01*
X442012Y81422D01*
X441959Y81451D01*
X441911Y81488D01*
X441820Y81528D01*
X441733Y81576D01*
X441675Y81591D01*
X441619Y81615D01*
X441521Y81630D01*
X441425Y81655D01*
X441325Y81661D01*
X441305Y81665D01*
X441293Y81663D01*
X441265Y81665D01*
X425404Y81665D01*
X425266Y81648D01*
X425127Y81635D01*
X425108Y81628D01*
X425088Y81625D01*
X424959Y81574D01*
X424828Y81527D01*
X424811Y81516D01*
X424792Y81508D01*
X424680Y81427D01*
X424565Y81349D01*
X424551Y81333D01*
X424535Y81322D01*
X424446Y81214D01*
X424354Y81110D01*
X424345Y81092D01*
X424332Y81077D01*
X424273Y80951D01*
X424210Y80827D01*
X424205Y80807D01*
X424197Y80789D01*
X424171Y80653D01*
X424140Y80517D01*
X424141Y80496D01*
X424137Y80477D01*
X424146Y80338D01*
X424150Y80199D01*
X424155Y80179D01*
X424157Y80159D01*
X424199Y80027D01*
X424238Y79893D01*
X424248Y79876D01*
X424255Y79857D01*
X424329Y79739D01*
X424400Y79619D01*
X424418Y79598D01*
X424425Y79588D01*
X424440Y79574D01*
X424506Y79498D01*
X424658Y79347D01*
X424886Y78795D01*
X424891Y78786D01*
X424894Y78777D01*
X424970Y78648D01*
X425044Y78518D01*
X425050Y78512D01*
X425055Y78504D01*
X425162Y78383D01*
X425551Y77993D01*
X440326Y63218D01*
X440404Y63158D01*
X440476Y63090D01*
X440529Y63061D01*
X440577Y63024D01*
X440668Y62984D01*
X440755Y62936D01*
X440813Y62921D01*
X440869Y62897D01*
X440967Y62882D01*
X441063Y62857D01*
X441163Y62851D01*
X441183Y62847D01*
X441195Y62849D01*
X441223Y62847D01*
X442561Y62847D01*
X445445Y61652D01*
X447652Y59445D01*
X448847Y56561D01*
X448847Y53439D01*
X447652Y50555D01*
X445445Y48348D01*
X442561Y47153D01*
X439439Y47153D01*
X436555Y48348D01*
X434348Y50555D01*
X433153Y53439D01*
X433153Y54777D01*
X433141Y54875D01*
X433138Y54974D01*
X433121Y55032D01*
X433113Y55092D01*
X433077Y55184D01*
X433049Y55279D01*
X433019Y55331D01*
X432996Y55388D01*
X432938Y55468D01*
X432888Y55553D01*
X432822Y55629D01*
X432810Y55645D01*
X432800Y55653D01*
X432782Y55674D01*
X427625Y60831D01*
X427586Y60861D01*
X427552Y60898D01*
X427461Y60958D01*
X427374Y61026D01*
X427328Y61045D01*
X427287Y61073D01*
X427183Y61108D01*
X427082Y61152D01*
X427033Y61160D01*
X426986Y61176D01*
X426876Y61185D01*
X426768Y61202D01*
X426718Y61197D01*
X426669Y61201D01*
X426560Y61182D01*
X426451Y61172D01*
X426404Y61155D01*
X426355Y61147D01*
X426255Y61102D01*
X426152Y61064D01*
X426111Y61036D01*
X426065Y61016D01*
X425980Y60948D01*
X425889Y60886D01*
X425856Y60849D01*
X425817Y60817D01*
X425751Y60730D01*
X425678Y60647D01*
X425656Y60603D01*
X425626Y60563D01*
X425555Y60419D01*
X424658Y58253D01*
X423402Y56998D01*
X423329Y56904D01*
X423251Y56814D01*
X423232Y56778D01*
X423207Y56746D01*
X423160Y56637D01*
X423106Y56531D01*
X423097Y56492D01*
X423081Y56454D01*
X423062Y56337D01*
X423036Y56221D01*
X423037Y56180D01*
X423031Y56140D01*
X423042Y56022D01*
X423046Y55903D01*
X423057Y55864D01*
X423061Y55824D01*
X423101Y55712D01*
X423134Y55598D01*
X423155Y55563D01*
X423168Y55524D01*
X423235Y55426D01*
X423296Y55324D01*
X423336Y55278D01*
X423347Y55261D01*
X423362Y55248D01*
X423402Y55203D01*
X423489Y55116D01*
X423496Y55110D01*
X423502Y55103D01*
X423622Y55012D01*
X423638Y55000D01*
X423662Y54978D01*
X423679Y54968D01*
X423740Y54921D01*
X423749Y54917D01*
X423756Y54911D01*
X423901Y54840D01*
X425272Y54273D01*
X441326Y38218D01*
X441404Y38158D01*
X441476Y38090D01*
X441529Y38061D01*
X441577Y38024D01*
X441668Y37984D01*
X441755Y37936D01*
X441813Y37921D01*
X441869Y37897D01*
X441967Y37882D01*
X442063Y37857D01*
X442163Y37851D01*
X442183Y37847D01*
X442195Y37849D01*
X442223Y37847D01*
X443561Y37847D01*
X446445Y36652D01*
X448652Y34445D01*
X449847Y31561D01*
X449847Y28439D01*
X448652Y25555D01*
X446445Y23348D01*
X443561Y22153D01*
X440439Y22153D01*
G37*
%LPD*%
%LPC*%
G36*
X206134Y173245D02*
X206134Y173245D01*
X198545Y180834D01*
X198545Y191566D01*
X206134Y199155D01*
X216866Y199155D01*
X223302Y192718D01*
X223397Y192645D01*
X223486Y192566D01*
X223522Y192548D01*
X223554Y192523D01*
X223663Y192476D01*
X223769Y192422D01*
X223808Y192413D01*
X223846Y192397D01*
X223963Y192378D01*
X224079Y192352D01*
X224120Y192353D01*
X224160Y192347D01*
X224278Y192358D01*
X224397Y192362D01*
X224436Y192373D01*
X224476Y192377D01*
X224589Y192417D01*
X224703Y192450D01*
X224737Y192471D01*
X224776Y192485D01*
X224874Y192551D01*
X224977Y192612D01*
X225022Y192652D01*
X225039Y192663D01*
X225052Y192678D01*
X225097Y192718D01*
X231534Y199155D01*
X242266Y199155D01*
X248702Y192718D01*
X248797Y192645D01*
X248886Y192566D01*
X248922Y192548D01*
X248954Y192523D01*
X249063Y192476D01*
X249169Y192422D01*
X249208Y192413D01*
X249246Y192397D01*
X249363Y192378D01*
X249479Y192352D01*
X249520Y192353D01*
X249560Y192347D01*
X249678Y192358D01*
X249797Y192362D01*
X249836Y192373D01*
X249876Y192377D01*
X249989Y192417D01*
X250103Y192450D01*
X250137Y192471D01*
X250176Y192485D01*
X250274Y192551D01*
X250377Y192612D01*
X250422Y192652D01*
X250439Y192663D01*
X250452Y192678D01*
X250497Y192718D01*
X256934Y199155D01*
X267666Y199155D01*
X274102Y192718D01*
X274197Y192645D01*
X274286Y192566D01*
X274322Y192548D01*
X274354Y192523D01*
X274463Y192476D01*
X274569Y192422D01*
X274608Y192413D01*
X274646Y192397D01*
X274763Y192378D01*
X274879Y192352D01*
X274920Y192353D01*
X274960Y192347D01*
X275078Y192358D01*
X275197Y192362D01*
X275236Y192373D01*
X275276Y192377D01*
X275389Y192417D01*
X275503Y192450D01*
X275537Y192471D01*
X275576Y192485D01*
X275674Y192551D01*
X275777Y192612D01*
X275822Y192652D01*
X275839Y192663D01*
X275852Y192678D01*
X275897Y192718D01*
X282334Y199155D01*
X293066Y199155D01*
X299502Y192718D01*
X299597Y192645D01*
X299686Y192566D01*
X299722Y192548D01*
X299754Y192523D01*
X299863Y192476D01*
X299969Y192422D01*
X300008Y192413D01*
X300046Y192397D01*
X300163Y192378D01*
X300279Y192352D01*
X300320Y192353D01*
X300360Y192347D01*
X300478Y192358D01*
X300597Y192362D01*
X300636Y192373D01*
X300676Y192377D01*
X300789Y192417D01*
X300903Y192450D01*
X300937Y192471D01*
X300976Y192485D01*
X301074Y192551D01*
X301177Y192612D01*
X301222Y192652D01*
X301239Y192663D01*
X301252Y192678D01*
X301297Y192718D01*
X307734Y199155D01*
X318466Y199155D01*
X324903Y192718D01*
X324997Y192645D01*
X325086Y192566D01*
X325122Y192548D01*
X325154Y192523D01*
X325263Y192476D01*
X325369Y192422D01*
X325408Y192413D01*
X325446Y192397D01*
X325563Y192378D01*
X325679Y192352D01*
X325720Y192353D01*
X325760Y192347D01*
X325878Y192358D01*
X325997Y192362D01*
X326036Y192373D01*
X326076Y192377D01*
X326189Y192417D01*
X326303Y192450D01*
X326338Y192471D01*
X326376Y192485D01*
X326474Y192552D01*
X326577Y192612D01*
X326622Y192652D01*
X326639Y192663D01*
X326652Y192678D01*
X326698Y192718D01*
X333134Y199155D01*
X343866Y199155D01*
X351455Y191566D01*
X351455Y180834D01*
X343866Y173245D01*
X333134Y173245D01*
X326698Y179682D01*
X326603Y179755D01*
X326514Y179834D01*
X326478Y179852D01*
X326446Y179877D01*
X326337Y179924D01*
X326231Y179978D01*
X326192Y179987D01*
X326154Y180003D01*
X326037Y180022D01*
X325921Y180048D01*
X325880Y180047D01*
X325840Y180053D01*
X325722Y180042D01*
X325603Y180038D01*
X325564Y180027D01*
X325524Y180023D01*
X325411Y179983D01*
X325297Y179950D01*
X325263Y179929D01*
X325224Y179915D01*
X325126Y179849D01*
X325023Y179788D01*
X324978Y179748D01*
X324961Y179737D01*
X324948Y179722D01*
X324903Y179682D01*
X318466Y173245D01*
X307734Y173245D01*
X301297Y179682D01*
X301203Y179755D01*
X301114Y179834D01*
X301078Y179852D01*
X301046Y179877D01*
X300937Y179924D01*
X300831Y179978D01*
X300792Y179987D01*
X300754Y180003D01*
X300637Y180022D01*
X300521Y180048D01*
X300480Y180047D01*
X300440Y180053D01*
X300322Y180042D01*
X300203Y180038D01*
X300164Y180027D01*
X300124Y180023D01*
X300011Y179983D01*
X299897Y179950D01*
X299862Y179929D01*
X299824Y179915D01*
X299726Y179848D01*
X299623Y179788D01*
X299578Y179748D01*
X299561Y179737D01*
X299548Y179722D01*
X299502Y179682D01*
X293066Y173245D01*
X282334Y173245D01*
X275897Y179682D01*
X275803Y179755D01*
X275714Y179834D01*
X275678Y179852D01*
X275646Y179877D01*
X275537Y179924D01*
X275431Y179978D01*
X275392Y179987D01*
X275354Y180003D01*
X275237Y180022D01*
X275121Y180048D01*
X275080Y180047D01*
X275040Y180053D01*
X274922Y180042D01*
X274803Y180038D01*
X274764Y180027D01*
X274724Y180023D01*
X274611Y179983D01*
X274497Y179950D01*
X274462Y179929D01*
X274424Y179915D01*
X274326Y179848D01*
X274223Y179788D01*
X274178Y179748D01*
X274161Y179737D01*
X274148Y179722D01*
X274102Y179682D01*
X267666Y173245D01*
X256934Y173245D01*
X250497Y179682D01*
X250403Y179755D01*
X250314Y179834D01*
X250278Y179852D01*
X250246Y179877D01*
X250137Y179924D01*
X250031Y179978D01*
X249992Y179987D01*
X249954Y180003D01*
X249837Y180022D01*
X249721Y180048D01*
X249680Y180047D01*
X249640Y180053D01*
X249522Y180042D01*
X249403Y180038D01*
X249364Y180027D01*
X249324Y180023D01*
X249211Y179983D01*
X249097Y179950D01*
X249062Y179929D01*
X249024Y179915D01*
X248926Y179848D01*
X248823Y179788D01*
X248778Y179748D01*
X248761Y179737D01*
X248748Y179722D01*
X248702Y179682D01*
X242266Y173245D01*
X231534Y173245D01*
X225097Y179682D01*
X225003Y179755D01*
X224914Y179834D01*
X224878Y179852D01*
X224846Y179877D01*
X224737Y179924D01*
X224631Y179978D01*
X224592Y179987D01*
X224554Y180003D01*
X224437Y180022D01*
X224321Y180048D01*
X224280Y180047D01*
X224240Y180053D01*
X224122Y180042D01*
X224003Y180038D01*
X223964Y180027D01*
X223924Y180023D01*
X223811Y179983D01*
X223697Y179950D01*
X223662Y179929D01*
X223624Y179915D01*
X223526Y179848D01*
X223423Y179788D01*
X223378Y179748D01*
X223361Y179737D01*
X223348Y179722D01*
X223302Y179682D01*
X216866Y173245D01*
X206134Y173245D01*
G37*
%LPD*%
%LPC*%
G36*
X61181Y20031D02*
X61181Y20031D01*
X54931Y26281D01*
X54931Y35119D01*
X61181Y41369D01*
X70019Y41369D01*
X74702Y36685D01*
X74797Y36612D01*
X74886Y36534D01*
X74922Y36515D01*
X74954Y36490D01*
X75063Y36443D01*
X75169Y36389D01*
X75208Y36380D01*
X75246Y36364D01*
X75363Y36345D01*
X75479Y36319D01*
X75520Y36321D01*
X75560Y36314D01*
X75678Y36325D01*
X75797Y36329D01*
X75836Y36340D01*
X75876Y36344D01*
X75989Y36384D01*
X76103Y36417D01*
X76137Y36438D01*
X76176Y36452D01*
X76274Y36518D01*
X76377Y36579D01*
X76422Y36619D01*
X76439Y36630D01*
X76452Y36645D01*
X76497Y36685D01*
X81181Y41369D01*
X90019Y41369D01*
X96269Y35119D01*
X96269Y26281D01*
X90019Y20031D01*
X81181Y20031D01*
X76497Y24715D01*
X76403Y24788D01*
X76314Y24866D01*
X76278Y24885D01*
X76246Y24910D01*
X76137Y24957D01*
X76031Y25011D01*
X75992Y25020D01*
X75954Y25036D01*
X75837Y25055D01*
X75721Y25081D01*
X75680Y25079D01*
X75640Y25086D01*
X75522Y25075D01*
X75403Y25071D01*
X75364Y25060D01*
X75324Y25056D01*
X75211Y25016D01*
X75097Y24983D01*
X75062Y24962D01*
X75024Y24948D01*
X74926Y24881D01*
X74823Y24821D01*
X74778Y24781D01*
X74761Y24770D01*
X74748Y24755D01*
X74702Y24715D01*
X70019Y20031D01*
X61181Y20031D01*
G37*
%LPD*%
%LPC*%
G36*
X485940Y145355D02*
X485940Y145355D01*
X482135Y146932D01*
X479222Y149845D01*
X477645Y153650D01*
X477645Y170350D01*
X479222Y174155D01*
X482135Y177068D01*
X485940Y178645D01*
X490060Y178645D01*
X493865Y177068D01*
X496778Y174155D01*
X498355Y170350D01*
X498355Y153650D01*
X496778Y149845D01*
X493865Y146932D01*
X490060Y145355D01*
X485940Y145355D01*
G37*
%LPD*%
%LPC*%
G36*
X21181Y20031D02*
X21181Y20031D01*
X14931Y26281D01*
X14931Y35119D01*
X21181Y41369D01*
X30019Y41369D01*
X36269Y35119D01*
X36269Y26281D01*
X30019Y20031D01*
X21181Y20031D01*
G37*
%LPD*%
%LPC*%
G36*
X464474Y163874D02*
X464474Y163874D01*
X464474Y174323D01*
X465580Y173865D01*
X466610Y173176D01*
X467486Y172300D01*
X468175Y171270D01*
X468649Y170125D01*
X468891Y168910D01*
X468891Y163874D01*
X464474Y163874D01*
G37*
%LPD*%
%LPC*%
G36*
X464474Y160126D02*
X464474Y160126D01*
X468891Y160126D01*
X468891Y155090D01*
X468649Y153875D01*
X468175Y152730D01*
X467486Y151700D01*
X466610Y150824D01*
X465580Y150135D01*
X464474Y149677D01*
X464474Y160126D01*
G37*
%LPD*%
%LPC*%
G36*
X456309Y163874D02*
X456309Y163874D01*
X456309Y168910D01*
X456551Y170125D01*
X457025Y171270D01*
X457714Y172300D01*
X458590Y173176D01*
X459620Y173865D01*
X460726Y174323D01*
X460726Y163874D01*
X456309Y163874D01*
G37*
%LPD*%
%LPC*%
G36*
X459620Y150135D02*
X459620Y150135D01*
X458590Y150824D01*
X457714Y151700D01*
X457025Y152730D01*
X456551Y153875D01*
X456309Y155090D01*
X456309Y160126D01*
X460726Y160126D01*
X460726Y149677D01*
X459620Y150135D01*
G37*
%LPD*%
%LPC*%
G36*
X47631Y32731D02*
X47631Y32731D01*
X47631Y37305D01*
X48336Y37305D01*
X52205Y33436D01*
X52205Y32731D01*
X47631Y32731D01*
G37*
%LPD*%
%LPC*%
G36*
X38995Y32731D02*
X38995Y32731D01*
X38995Y33436D01*
X42864Y37305D01*
X43569Y37305D01*
X43569Y32731D01*
X38995Y32731D01*
G37*
%LPD*%
%LPC*%
G36*
X47631Y24095D02*
X47631Y24095D01*
X47631Y28669D01*
X52205Y28669D01*
X52205Y27964D01*
X48336Y24095D01*
X47631Y24095D01*
G37*
%LPD*%
%LPC*%
G36*
X42864Y24095D02*
X42864Y24095D01*
X38995Y27964D01*
X38995Y28669D01*
X43569Y28669D01*
X43569Y24095D01*
X42864Y24095D01*
G37*
%LPD*%
%LPC*%
G36*
X347810Y51249D02*
X347810Y51249D01*
X348109Y51766D01*
X348584Y52241D01*
X349165Y52577D01*
X349814Y52751D01*
X357101Y52751D01*
X357101Y51249D01*
X347810Y51249D01*
G37*
%LPD*%
%LPC*%
G36*
X360099Y51249D02*
X360099Y51249D01*
X360099Y52751D01*
X367386Y52751D01*
X368035Y52577D01*
X368616Y52241D01*
X369091Y51766D01*
X369390Y51249D01*
X360099Y51249D01*
G37*
%LPD*%
%LPC*%
G36*
X360099Y48251D02*
X360099Y48251D01*
X369390Y48251D01*
X369091Y47734D01*
X368616Y47259D01*
X368035Y46923D01*
X367386Y46749D01*
X360099Y46749D01*
X360099Y48251D01*
G37*
%LPD*%
%LPC*%
G36*
X349814Y46749D02*
X349814Y46749D01*
X349165Y46923D01*
X348584Y47259D01*
X348109Y47734D01*
X347810Y48251D01*
X357101Y48251D01*
X357101Y46749D01*
X349814Y46749D01*
G37*
%LPD*%
D10*
X25600Y30700D03*
X45600Y30700D03*
X65600Y30700D03*
X85600Y30700D03*
D11*
X402150Y74700D02*
X402150Y75600D01*
X419050Y75600D01*
X419050Y74700D01*
X402150Y74700D01*
X350150Y74700D02*
X350150Y75600D01*
X367050Y75600D01*
X367050Y74700D01*
X350150Y74700D01*
X402150Y87400D02*
X402150Y88300D01*
X419050Y88300D01*
X419050Y87400D01*
X402150Y87400D01*
X402150Y62900D02*
X402150Y62000D01*
X402150Y62900D02*
X419050Y62900D01*
X419050Y62000D01*
X402150Y62000D01*
X402150Y50200D02*
X402150Y49300D01*
X402150Y50200D02*
X419050Y50200D01*
X419050Y49300D01*
X402150Y49300D01*
X350150Y87400D02*
X350150Y88300D01*
X367050Y88300D01*
X367050Y87400D01*
X350150Y87400D01*
X350150Y62900D02*
X350150Y62000D01*
X350150Y62900D02*
X367050Y62900D01*
X367050Y62000D01*
X350150Y62000D01*
X350150Y50200D02*
X350150Y49300D01*
X350150Y50200D02*
X367050Y50200D01*
X367050Y49300D01*
X350150Y49300D01*
D12*
X211500Y186200D03*
X236900Y186200D03*
X262300Y186200D03*
X287700Y186200D03*
X313100Y186200D03*
X338500Y186200D03*
X338500Y33800D03*
X313100Y33800D03*
X287700Y33800D03*
X262300Y33800D03*
X236900Y33800D03*
X211500Y33800D03*
D13*
X462600Y155710D02*
X462600Y168290D01*
X488000Y168290D02*
X488000Y155710D01*
X513400Y155710D02*
X513400Y168290D01*
D14*
X441000Y55000D03*
D15*
X420850Y75150D01*
X410600Y75150D01*
X410600Y62450D01*
D14*
X385000Y74000D03*
D15*
X386150Y75150D01*
X410600Y75150D01*
D14*
X328000Y131000D03*
D15*
X349262Y131000D01*
X370262Y152000D01*
D14*
X370262Y152000D03*
D15*
X358600Y49750D02*
X328250Y49750D01*
X325000Y53000D01*
D14*
X325000Y53000D03*
X303000Y74000D03*
D15*
X275000Y74000D01*
X272000Y77000D01*
D14*
X272000Y77000D03*
X197000Y45000D03*
D15*
X201450Y49450D01*
X315600Y62450D02*
X358600Y62450D01*
X315600Y62450D02*
X302600Y49450D01*
X201450Y49450D01*
X315600Y75150D02*
X358600Y75150D01*
X315600Y75150D02*
X295600Y55150D01*
X158150Y55150D01*
X153000Y50000D01*
D14*
X153000Y50000D03*
D15*
X492128Y120732D02*
X513400Y142004D01*
X492128Y120732D02*
X459128Y120732D01*
X446262Y107866D01*
X358600Y107866D02*
X358600Y87850D01*
X513400Y142004D02*
X513400Y162000D01*
X358600Y107866D02*
X333688Y107866D01*
X358600Y107866D02*
X414000Y107866D01*
X446262Y107866D01*
X333688Y107866D02*
X311826Y129728D01*
X310826Y129728D01*
D16*
X459128Y120732D03*
X310826Y129728D03*
D14*
X414000Y107866D03*
D15*
X314684Y109440D02*
X282824Y141300D01*
X202244Y141300D01*
X132662Y71718D01*
X132662Y43860D01*
X156522Y20000D01*
X221672Y20000D01*
X235388Y33716D01*
X236900Y33800D01*
D16*
X314684Y109440D03*
D14*
X262000Y65000D03*
X256000Y130000D03*
D15*
X256000Y79000D01*
X262000Y73000D01*
X262000Y65000D01*
D14*
X388000Y27000D03*
D15*
X388000Y7142D01*
D14*
X388000Y7142D03*
D15*
X410600Y49750D02*
X422250Y49750D01*
X442000Y30000D01*
D14*
X442000Y30000D03*
X476000Y46000D03*
D15*
X476000Y55000D01*
X444000Y87000D01*
X411450Y87000D01*
X410600Y87850D01*
M02*
