G04 EAGLE Gerber RS-274X export*
G75*
%MOMM*%
%FSLAX34Y34*%
%LPD*%
%INSilkscreen Bottom*%
%IPPOS*%
%AMOC8*
5,1,8,0,0,1.08239X$1,22.5*%
G01*
%ADD10C,0.050800*%
%ADD11C,0.127000*%
%ADD12C,0.025400*%


D10*
X403396Y106392D02*
X403396Y102356D01*
X403394Y102279D01*
X403388Y102201D01*
X403379Y102125D01*
X403365Y102048D01*
X403348Y101973D01*
X403327Y101899D01*
X403302Y101825D01*
X403274Y101753D01*
X403242Y101683D01*
X403207Y101614D01*
X403168Y101547D01*
X403126Y101482D01*
X403081Y101419D01*
X403033Y101358D01*
X402982Y101300D01*
X402928Y101245D01*
X402871Y101192D01*
X402812Y101143D01*
X402750Y101096D01*
X402686Y101052D01*
X402620Y101012D01*
X402552Y100975D01*
X402482Y100941D01*
X402411Y100911D01*
X402338Y100885D01*
X402264Y100862D01*
X402189Y100843D01*
X402114Y100828D01*
X402037Y100816D01*
X401960Y100808D01*
X401883Y100804D01*
X401805Y100804D01*
X401728Y100808D01*
X401651Y100816D01*
X401574Y100828D01*
X401499Y100843D01*
X401424Y100862D01*
X401350Y100885D01*
X401277Y100911D01*
X401206Y100941D01*
X401136Y100975D01*
X401068Y101012D01*
X401002Y101052D01*
X400938Y101096D01*
X400876Y101143D01*
X400817Y101192D01*
X400760Y101245D01*
X400706Y101300D01*
X400655Y101358D01*
X400607Y101419D01*
X400562Y101482D01*
X400520Y101547D01*
X400481Y101614D01*
X400446Y101683D01*
X400414Y101753D01*
X400386Y101825D01*
X400361Y101899D01*
X400340Y101973D01*
X400323Y102048D01*
X400309Y102125D01*
X400300Y102201D01*
X400294Y102279D01*
X400292Y102356D01*
X400292Y106392D01*
X396540Y106392D02*
X396540Y100804D01*
X396540Y103598D02*
X397316Y104064D01*
X397367Y104097D01*
X397416Y104133D01*
X397462Y104172D01*
X397505Y104215D01*
X397546Y104259D01*
X397584Y104307D01*
X397618Y104357D01*
X397649Y104409D01*
X397677Y104463D01*
X397701Y104518D01*
X397722Y104576D01*
X397738Y104634D01*
X397751Y104693D01*
X397760Y104753D01*
X397765Y104813D01*
X397766Y104874D01*
X397763Y104935D01*
X397756Y104995D01*
X397745Y105055D01*
X397730Y105113D01*
X397712Y105171D01*
X397690Y105228D01*
X397664Y105282D01*
X397634Y105335D01*
X397601Y105386D01*
X397565Y105435D01*
X397526Y105481D01*
X397484Y105525D01*
X397439Y105566D01*
X397392Y105603D01*
X397342Y105638D01*
X397290Y105669D01*
X397236Y105697D01*
X397180Y105721D01*
X397123Y105741D01*
X397065Y105758D01*
X397006Y105771D01*
X396909Y105787D01*
X396811Y105799D01*
X396713Y105806D01*
X396614Y105810D01*
X396516Y105811D01*
X396417Y105807D01*
X396319Y105799D01*
X396221Y105787D01*
X396124Y105771D01*
X396028Y105752D01*
X395932Y105728D01*
X395837Y105701D01*
X395744Y105670D01*
X395652Y105635D01*
X395561Y105597D01*
X395472Y105555D01*
X395384Y105510D01*
X395299Y105461D01*
X396540Y103598D02*
X395764Y103132D01*
X395713Y103099D01*
X395664Y103063D01*
X395618Y103024D01*
X395575Y102981D01*
X395534Y102937D01*
X395496Y102889D01*
X395462Y102839D01*
X395431Y102787D01*
X395403Y102733D01*
X395379Y102678D01*
X395358Y102620D01*
X395342Y102562D01*
X395329Y102503D01*
X395320Y102443D01*
X395315Y102383D01*
X395314Y102322D01*
X395317Y102261D01*
X395324Y102201D01*
X395335Y102141D01*
X395350Y102083D01*
X395368Y102025D01*
X395390Y101968D01*
X395416Y101914D01*
X395446Y101861D01*
X395479Y101810D01*
X395515Y101761D01*
X395554Y101715D01*
X395596Y101671D01*
X395641Y101630D01*
X395688Y101593D01*
X395738Y101558D01*
X395790Y101527D01*
X395844Y101499D01*
X395900Y101475D01*
X395957Y101455D01*
X396015Y101438D01*
X396074Y101425D01*
X396075Y101425D02*
X396172Y101409D01*
X396270Y101397D01*
X396368Y101390D01*
X396467Y101386D01*
X396565Y101385D01*
X396664Y101389D01*
X396762Y101397D01*
X396860Y101409D01*
X396957Y101425D01*
X397053Y101444D01*
X397149Y101468D01*
X397244Y101495D01*
X397337Y101526D01*
X397429Y101561D01*
X397520Y101599D01*
X397609Y101641D01*
X397697Y101686D01*
X397782Y101735D01*
X391264Y106392D02*
X391191Y106390D01*
X391118Y106384D01*
X391045Y106375D01*
X390974Y106361D01*
X390902Y106344D01*
X390832Y106324D01*
X390763Y106299D01*
X390696Y106271D01*
X390630Y106240D01*
X390566Y106205D01*
X390503Y106167D01*
X390443Y106125D01*
X390385Y106081D01*
X390329Y106033D01*
X390276Y105983D01*
X390226Y105930D01*
X390178Y105874D01*
X390134Y105816D01*
X390092Y105756D01*
X390054Y105694D01*
X390019Y105629D01*
X389988Y105563D01*
X389960Y105496D01*
X389935Y105427D01*
X389915Y105357D01*
X389898Y105285D01*
X389884Y105214D01*
X389875Y105141D01*
X389869Y105068D01*
X389867Y104995D01*
X391264Y106392D02*
X391348Y106390D01*
X391431Y106384D01*
X391514Y106375D01*
X391596Y106361D01*
X391678Y106344D01*
X391759Y106322D01*
X391839Y106297D01*
X391917Y106269D01*
X391995Y106237D01*
X392070Y106201D01*
X392144Y106162D01*
X392216Y106119D01*
X392286Y106073D01*
X392353Y106024D01*
X392419Y105971D01*
X392481Y105916D01*
X392541Y105858D01*
X392599Y105797D01*
X392653Y105734D01*
X392705Y105668D01*
X392753Y105600D01*
X392798Y105529D01*
X392840Y105457D01*
X392878Y105382D01*
X392913Y105306D01*
X392944Y105229D01*
X392972Y105150D01*
X390334Y103909D02*
X390280Y103962D01*
X390229Y104019D01*
X390181Y104078D01*
X390136Y104139D01*
X390095Y104202D01*
X390056Y104268D01*
X390021Y104335D01*
X389989Y104404D01*
X389961Y104475D01*
X389937Y104546D01*
X389916Y104619D01*
X389899Y104693D01*
X389885Y104768D01*
X389876Y104843D01*
X389870Y104919D01*
X389868Y104995D01*
X390333Y103908D02*
X392972Y100804D01*
X389867Y100804D01*
D11*
X24800Y15000D02*
X24800Y205000D01*
X24800Y15000D02*
X525600Y15000D01*
X525600Y205000D02*
X24800Y205000D01*
X525600Y205000D02*
X525600Y15000D01*
D12*
X96893Y39661D02*
X96893Y42413D01*
X96893Y39661D02*
X96891Y39597D01*
X96885Y39533D01*
X96876Y39470D01*
X96862Y39408D01*
X96845Y39346D01*
X96824Y39286D01*
X96800Y39227D01*
X96772Y39169D01*
X96740Y39114D01*
X96706Y39060D01*
X96668Y39009D01*
X96627Y38959D01*
X96583Y38913D01*
X96537Y38869D01*
X96487Y38828D01*
X96436Y38790D01*
X96382Y38756D01*
X96327Y38724D01*
X96269Y38696D01*
X96210Y38672D01*
X96150Y38651D01*
X96088Y38634D01*
X96026Y38620D01*
X95963Y38611D01*
X95899Y38605D01*
X95835Y38603D01*
X95771Y38605D01*
X95707Y38611D01*
X95644Y38620D01*
X95582Y38634D01*
X95520Y38651D01*
X95460Y38672D01*
X95401Y38696D01*
X95343Y38724D01*
X95288Y38756D01*
X95234Y38790D01*
X95183Y38828D01*
X95133Y38869D01*
X95087Y38913D01*
X95043Y38959D01*
X95002Y39009D01*
X94964Y39060D01*
X94930Y39114D01*
X94898Y39169D01*
X94870Y39227D01*
X94846Y39286D01*
X94825Y39346D01*
X94808Y39408D01*
X94794Y39470D01*
X94785Y39533D01*
X94779Y39597D01*
X94777Y39661D01*
X94776Y39661D02*
X94776Y42413D01*
X92299Y42413D02*
X92299Y38603D01*
X92299Y40508D02*
X92828Y40826D01*
X92869Y40853D01*
X92909Y40883D01*
X92945Y40916D01*
X92979Y40952D01*
X93010Y40991D01*
X93038Y41031D01*
X93062Y41074D01*
X93084Y41119D01*
X93101Y41165D01*
X93115Y41212D01*
X93126Y41260D01*
X93132Y41309D01*
X93135Y41358D01*
X93134Y41408D01*
X93129Y41457D01*
X93120Y41505D01*
X93107Y41553D01*
X93091Y41600D01*
X93071Y41645D01*
X93048Y41688D01*
X93021Y41730D01*
X92991Y41769D01*
X92959Y41806D01*
X92923Y41840D01*
X92885Y41871D01*
X92845Y41900D01*
X92802Y41925D01*
X92758Y41946D01*
X92712Y41964D01*
X92665Y41979D01*
X92617Y41990D01*
X92616Y41990D02*
X92537Y42002D01*
X92457Y42011D01*
X92376Y42016D01*
X92296Y42017D01*
X92215Y42014D01*
X92135Y42007D01*
X92055Y41997D01*
X91975Y41982D01*
X91897Y41964D01*
X91819Y41942D01*
X91743Y41916D01*
X91668Y41887D01*
X91594Y41854D01*
X91522Y41818D01*
X91452Y41778D01*
X92299Y40508D02*
X91770Y40191D01*
X91770Y40190D02*
X91729Y40163D01*
X91690Y40133D01*
X91653Y40100D01*
X91619Y40064D01*
X91588Y40025D01*
X91560Y39985D01*
X91536Y39942D01*
X91514Y39897D01*
X91497Y39851D01*
X91483Y39804D01*
X91472Y39756D01*
X91466Y39707D01*
X91463Y39658D01*
X91464Y39608D01*
X91469Y39559D01*
X91478Y39511D01*
X91491Y39463D01*
X91507Y39416D01*
X91527Y39371D01*
X91550Y39328D01*
X91577Y39286D01*
X91607Y39247D01*
X91639Y39210D01*
X91675Y39176D01*
X91713Y39145D01*
X91753Y39116D01*
X91796Y39091D01*
X91840Y39070D01*
X91886Y39052D01*
X91933Y39037D01*
X91981Y39026D01*
X91982Y39026D02*
X92061Y39014D01*
X92141Y39005D01*
X92222Y39000D01*
X92302Y38999D01*
X92383Y39002D01*
X92463Y39009D01*
X92543Y39019D01*
X92623Y39034D01*
X92701Y39052D01*
X92779Y39074D01*
X92855Y39100D01*
X92930Y39129D01*
X93004Y39162D01*
X93076Y39198D01*
X93146Y39238D01*
X89097Y40296D02*
X87827Y40296D01*
X89097Y40296D02*
X89152Y40298D01*
X89208Y40303D01*
X89262Y40312D01*
X89316Y40325D01*
X89369Y40341D01*
X89421Y40360D01*
X89472Y40383D01*
X89521Y40409D01*
X89568Y40439D01*
X89613Y40471D01*
X89655Y40506D01*
X89696Y40544D01*
X89734Y40585D01*
X89769Y40627D01*
X89801Y40672D01*
X89831Y40720D01*
X89857Y40768D01*
X89880Y40819D01*
X89899Y40871D01*
X89915Y40924D01*
X89928Y40978D01*
X89937Y41032D01*
X89942Y41088D01*
X89944Y41143D01*
X89944Y41355D01*
X89943Y41355D02*
X89941Y41419D01*
X89935Y41483D01*
X89926Y41546D01*
X89912Y41608D01*
X89895Y41670D01*
X89874Y41730D01*
X89850Y41789D01*
X89822Y41847D01*
X89790Y41902D01*
X89756Y41956D01*
X89718Y42007D01*
X89677Y42057D01*
X89633Y42103D01*
X89587Y42147D01*
X89537Y42188D01*
X89486Y42226D01*
X89432Y42260D01*
X89377Y42292D01*
X89319Y42320D01*
X89260Y42344D01*
X89200Y42365D01*
X89138Y42382D01*
X89076Y42396D01*
X89013Y42405D01*
X88949Y42411D01*
X88885Y42413D01*
X88821Y42411D01*
X88757Y42405D01*
X88694Y42396D01*
X88632Y42382D01*
X88570Y42365D01*
X88510Y42344D01*
X88451Y42320D01*
X88393Y42292D01*
X88338Y42260D01*
X88284Y42226D01*
X88233Y42188D01*
X88183Y42147D01*
X88137Y42103D01*
X88093Y42057D01*
X88052Y42007D01*
X88014Y41956D01*
X87980Y41902D01*
X87948Y41847D01*
X87920Y41789D01*
X87896Y41730D01*
X87875Y41670D01*
X87858Y41608D01*
X87844Y41546D01*
X87835Y41483D01*
X87829Y41419D01*
X87827Y41355D01*
X87827Y40296D01*
X87829Y40215D01*
X87835Y40135D01*
X87844Y40055D01*
X87858Y39976D01*
X87875Y39897D01*
X87896Y39819D01*
X87920Y39742D01*
X87948Y39667D01*
X87980Y39593D01*
X88015Y39520D01*
X88054Y39449D01*
X88096Y39381D01*
X88141Y39314D01*
X88189Y39249D01*
X88241Y39187D01*
X88295Y39128D01*
X88352Y39071D01*
X88411Y39017D01*
X88473Y38965D01*
X88538Y38917D01*
X88605Y38872D01*
X88674Y38830D01*
X88744Y38791D01*
X88817Y38756D01*
X88891Y38724D01*
X88966Y38696D01*
X89043Y38672D01*
X89121Y38651D01*
X89200Y38634D01*
X89279Y38620D01*
X89359Y38611D01*
X89439Y38605D01*
X89520Y38603D01*
M02*
