G04 EAGLE Gerber RS-274X export*
G75*
%MOMM*%
%FSLAX34Y34*%
%LPD*%
%INSoldermask Top*%
%IPPOS*%
%AMOC8*
5,1,8,0,0,1.08239X$1,22.5*%
G01*
%ADD10C,0.704088*%
%ADD11C,0.706503*%
%ADD12C,0.721278*%
%ADD13P,1.649562X8X22.500000*%
%ADD14C,0.714847*%
%ADD15C,0.702831*%
%ADD16P,2.144431X8X292.500000*%
%ADD17C,0.803200*%
%ADD18C,1.461200*%


D10*
X78048Y97046D02*
X78048Y63954D01*
X63752Y63954D01*
X63752Y97046D01*
X78048Y97046D01*
X78048Y70643D02*
X63752Y70643D01*
X63752Y77332D02*
X78048Y77332D01*
X78048Y84021D02*
X63752Y84021D01*
X63752Y90710D02*
X78048Y90710D01*
X78048Y115954D02*
X78048Y149046D01*
X78048Y115954D02*
X63752Y115954D01*
X63752Y149046D01*
X78048Y149046D01*
X78048Y122643D02*
X63752Y122643D01*
X63752Y129332D02*
X78048Y129332D01*
X78048Y136021D02*
X63752Y136021D01*
X63752Y142710D02*
X78048Y142710D01*
X179048Y80446D02*
X179048Y47354D01*
X164752Y47354D01*
X164752Y80446D01*
X179048Y80446D01*
X179048Y54043D02*
X164752Y54043D01*
X164752Y60732D02*
X179048Y60732D01*
X179048Y67421D02*
X164752Y67421D01*
X164752Y74110D02*
X179048Y74110D01*
X179048Y99354D02*
X179048Y132446D01*
X179048Y99354D02*
X164752Y99354D01*
X164752Y132446D01*
X179048Y132446D01*
X179048Y106043D02*
X164752Y106043D01*
X164752Y112732D02*
X179048Y112732D01*
X179048Y119421D02*
X164752Y119421D01*
X164752Y126110D02*
X179048Y126110D01*
D11*
X20084Y146616D02*
X12116Y146616D01*
X12116Y156584D01*
X20084Y156584D01*
X20084Y146616D01*
X20084Y153328D02*
X12116Y153328D01*
X31116Y146616D02*
X39084Y146616D01*
X31116Y146616D02*
X31116Y156584D01*
X39084Y156584D01*
X39084Y146616D01*
X39084Y153328D02*
X31116Y153328D01*
X175916Y33584D02*
X183884Y33584D01*
X183884Y23616D01*
X175916Y23616D01*
X175916Y33584D01*
X175916Y30328D02*
X183884Y30328D01*
X164884Y33584D02*
X156916Y33584D01*
X164884Y33584D02*
X164884Y23616D01*
X156916Y23616D01*
X156916Y33584D01*
X156916Y30328D02*
X164884Y30328D01*
X141684Y33584D02*
X133716Y33584D01*
X141684Y33584D02*
X141684Y23616D01*
X133716Y23616D01*
X133716Y33584D01*
X133716Y30328D02*
X141684Y30328D01*
X122684Y33584D02*
X114716Y33584D01*
X122684Y33584D02*
X122684Y23616D01*
X114716Y23616D01*
X114716Y33584D01*
X114716Y30328D02*
X122684Y30328D01*
D12*
X114290Y111140D02*
X114290Y121960D01*
X127110Y121960D01*
X127110Y111140D01*
X114290Y111140D01*
X114290Y117992D02*
X127110Y117992D01*
X127110Y81460D02*
X127110Y70640D01*
X114290Y70640D01*
X114290Y81460D01*
X127110Y81460D01*
X127110Y77492D02*
X114290Y77492D01*
X10290Y107740D02*
X10290Y118560D01*
X23110Y118560D01*
X23110Y107740D01*
X10290Y107740D01*
X10290Y114592D02*
X23110Y114592D01*
X23110Y78060D02*
X23110Y67240D01*
X10290Y67240D01*
X10290Y78060D01*
X23110Y78060D01*
X23110Y74092D02*
X10290Y74092D01*
D13*
X25600Y30700D03*
X45600Y30700D03*
X65600Y30700D03*
X85600Y30700D03*
D11*
X357916Y81816D02*
X357916Y89784D01*
X367884Y89784D01*
X367884Y81816D01*
X357916Y81816D01*
X357916Y88528D02*
X367884Y88528D01*
X357916Y70784D02*
X357916Y62816D01*
X357916Y70784D02*
X367884Y70784D01*
X367884Y62816D01*
X357916Y62816D01*
X357916Y69528D02*
X367884Y69528D01*
D14*
X78342Y167708D02*
X78342Y168592D01*
X78342Y167708D02*
X61458Y167708D01*
X61458Y168592D01*
X78342Y168592D01*
X78342Y180408D02*
X78342Y181292D01*
X78342Y180408D02*
X61458Y180408D01*
X61458Y181292D01*
X78342Y181292D01*
X78342Y193108D02*
X78342Y193992D01*
X78342Y193108D02*
X61458Y193108D01*
X61458Y193992D01*
X78342Y193992D01*
X78342Y205808D02*
X78342Y206692D01*
X78342Y205808D02*
X61458Y205808D01*
X61458Y206692D01*
X78342Y206692D01*
X26342Y206692D02*
X26342Y205808D01*
X9458Y205808D01*
X9458Y206692D01*
X26342Y206692D01*
X26342Y193992D02*
X26342Y193108D01*
X9458Y193108D01*
X9458Y193992D01*
X26342Y193992D01*
X26342Y181292D02*
X26342Y180408D01*
X9458Y180408D01*
X9458Y181292D01*
X26342Y181292D01*
X26342Y168592D02*
X26342Y167708D01*
X9458Y167708D01*
X9458Y168592D01*
X26342Y168592D01*
D15*
X104538Y188902D02*
X104538Y144898D01*
X104538Y188902D02*
X124542Y188902D01*
X124542Y144898D01*
X104538Y144898D01*
X104538Y151575D02*
X124542Y151575D01*
X124542Y158252D02*
X104538Y158252D01*
X104538Y164929D02*
X124542Y164929D01*
X124542Y171606D02*
X104538Y171606D01*
X104538Y178283D02*
X124542Y178283D01*
X124542Y184960D02*
X104538Y184960D01*
X159458Y188902D02*
X159458Y144898D01*
X159458Y188902D02*
X179462Y188902D01*
X179462Y144898D01*
X159458Y144898D01*
X159458Y151575D02*
X179462Y151575D01*
X179462Y158252D02*
X159458Y158252D01*
X159458Y164929D02*
X179462Y164929D01*
X179462Y171606D02*
X159458Y171606D01*
X159458Y178283D02*
X179462Y178283D01*
X179462Y184960D02*
X159458Y184960D01*
D14*
X242808Y85558D02*
X243692Y85558D01*
X242808Y85558D02*
X242808Y102442D01*
X243692Y102442D01*
X243692Y85558D01*
X243692Y92349D02*
X242808Y92349D01*
X242808Y99140D02*
X243692Y99140D01*
X268208Y137558D02*
X269092Y137558D01*
X268208Y137558D02*
X268208Y154442D01*
X269092Y154442D01*
X269092Y137558D01*
X269092Y144349D02*
X268208Y144349D01*
X268208Y151140D02*
X269092Y151140D01*
X230992Y85558D02*
X230108Y85558D01*
X230108Y102442D01*
X230992Y102442D01*
X230992Y85558D01*
X230992Y92349D02*
X230108Y92349D01*
X230108Y99140D02*
X230992Y99140D01*
X255508Y85558D02*
X256392Y85558D01*
X255508Y85558D02*
X255508Y102442D01*
X256392Y102442D01*
X256392Y85558D01*
X256392Y92349D02*
X255508Y92349D01*
X255508Y99140D02*
X256392Y99140D01*
X268208Y85558D02*
X269092Y85558D01*
X268208Y85558D02*
X268208Y102442D01*
X269092Y102442D01*
X269092Y85558D01*
X269092Y92349D02*
X268208Y92349D01*
X268208Y99140D02*
X269092Y99140D01*
X256392Y137558D02*
X255508Y137558D01*
X255508Y154442D01*
X256392Y154442D01*
X256392Y137558D01*
X256392Y144349D02*
X255508Y144349D01*
X255508Y151140D02*
X256392Y151140D01*
X280908Y137558D02*
X281792Y137558D01*
X280908Y137558D02*
X280908Y154442D01*
X281792Y154442D01*
X281792Y137558D01*
X281792Y144349D02*
X280908Y144349D01*
X280908Y151140D02*
X281792Y151140D01*
X293608Y137558D02*
X294492Y137558D01*
X293608Y137558D02*
X293608Y154442D01*
X294492Y154442D01*
X294492Y137558D01*
X294492Y144349D02*
X293608Y144349D01*
X293608Y151140D02*
X294492Y151140D01*
X294492Y85558D02*
X293608Y85558D01*
X293608Y102442D01*
X294492Y102442D01*
X294492Y85558D01*
X294492Y92349D02*
X293608Y92349D01*
X293608Y99140D02*
X294492Y99140D01*
X319008Y137558D02*
X319892Y137558D01*
X319008Y137558D02*
X319008Y154442D01*
X319892Y154442D01*
X319892Y137558D01*
X319892Y144349D02*
X319008Y144349D01*
X319008Y151140D02*
X319892Y151140D01*
X281792Y85558D02*
X280908Y85558D01*
X280908Y102442D01*
X281792Y102442D01*
X281792Y85558D01*
X281792Y92349D02*
X280908Y92349D01*
X280908Y99140D02*
X281792Y99140D01*
X306308Y85558D02*
X307192Y85558D01*
X306308Y85558D02*
X306308Y102442D01*
X307192Y102442D01*
X307192Y85558D01*
X307192Y92349D02*
X306308Y92349D01*
X306308Y99140D02*
X307192Y99140D01*
X307192Y137558D02*
X306308Y137558D01*
X306308Y154442D01*
X307192Y154442D01*
X307192Y137558D01*
X307192Y144349D02*
X306308Y144349D01*
X306308Y151140D02*
X307192Y151140D01*
X319008Y85558D02*
X319892Y85558D01*
X319008Y85558D02*
X319008Y102442D01*
X319892Y102442D01*
X319892Y85558D01*
X319892Y92349D02*
X319008Y92349D01*
X319008Y99140D02*
X319892Y99140D01*
X243692Y137558D02*
X242808Y137558D01*
X242808Y154442D01*
X243692Y154442D01*
X243692Y137558D01*
X243692Y144349D02*
X242808Y144349D01*
X242808Y151140D02*
X243692Y151140D01*
X230992Y137558D02*
X230108Y137558D01*
X230108Y154442D01*
X230992Y154442D01*
X230992Y137558D01*
X230992Y144349D02*
X230108Y144349D01*
X230108Y151140D02*
X230992Y151140D01*
D11*
X391984Y42484D02*
X391984Y34516D01*
X382016Y34516D01*
X382016Y42484D01*
X391984Y42484D01*
X391984Y41228D02*
X382016Y41228D01*
X391984Y53516D02*
X391984Y61484D01*
X391984Y53516D02*
X382016Y53516D01*
X382016Y61484D01*
X391984Y61484D01*
X391984Y60228D02*
X382016Y60228D01*
X415984Y42484D02*
X415984Y34516D01*
X406016Y34516D01*
X406016Y42484D01*
X415984Y42484D01*
X415984Y41228D02*
X406016Y41228D01*
X415984Y53516D02*
X415984Y61484D01*
X415984Y53516D02*
X406016Y53516D01*
X406016Y61484D01*
X415984Y61484D01*
X415984Y60228D02*
X406016Y60228D01*
D16*
X211500Y186200D03*
X236900Y186200D03*
X262300Y186200D03*
X287700Y186200D03*
X313100Y186200D03*
X338500Y186200D03*
X338500Y33800D03*
X313100Y33800D03*
X287700Y33800D03*
X262300Y33800D03*
X236900Y33800D03*
X211500Y33800D03*
D12*
X415590Y163590D02*
X415590Y178410D01*
X426410Y178410D01*
X426410Y163590D01*
X415590Y163590D01*
X415590Y170442D02*
X426410Y170442D01*
X426410Y177294D02*
X415590Y177294D01*
X365590Y178410D02*
X365590Y163590D01*
X365590Y178410D02*
X376410Y178410D01*
X376410Y163590D01*
X365590Y163590D01*
X365590Y170442D02*
X376410Y170442D01*
X376410Y177294D02*
X365590Y177294D01*
X416590Y141410D02*
X416590Y126590D01*
X416590Y141410D02*
X427410Y141410D01*
X427410Y126590D01*
X416590Y126590D01*
X416590Y133442D02*
X427410Y133442D01*
X427410Y140294D02*
X416590Y140294D01*
X366590Y141410D02*
X366590Y126590D01*
X366590Y141410D02*
X377410Y141410D01*
X377410Y126590D01*
X366590Y126590D01*
X366590Y133442D02*
X377410Y133442D01*
X377410Y140294D02*
X366590Y140294D01*
D17*
X451000Y90400D02*
X467000Y90400D01*
X503000Y90400D02*
X519000Y90400D01*
X467000Y103100D02*
X451000Y103100D01*
X451000Y77700D02*
X467000Y77700D01*
X467000Y65000D02*
X451000Y65000D01*
X503000Y103100D02*
X519000Y103100D01*
X519000Y77700D02*
X503000Y77700D01*
X503000Y65000D02*
X519000Y65000D01*
X467000Y39600D02*
X451000Y39600D01*
X503000Y39600D02*
X519000Y39600D01*
X467000Y52300D02*
X451000Y52300D01*
X451000Y26900D02*
X467000Y26900D01*
X503000Y52300D02*
X519000Y52300D01*
X519000Y26900D02*
X503000Y26900D01*
D11*
X423484Y94984D02*
X415516Y94984D01*
X423484Y94984D02*
X423484Y85016D01*
X415516Y85016D01*
X415516Y94984D01*
X415516Y91728D02*
X423484Y91728D01*
X404484Y94984D02*
X396516Y94984D01*
X404484Y94984D02*
X404484Y85016D01*
X396516Y85016D01*
X396516Y94984D01*
X396516Y91728D02*
X404484Y91728D01*
D18*
X462600Y155710D02*
X462600Y168290D01*
X488000Y168290D02*
X488000Y155710D01*
X513400Y155710D02*
X513400Y168290D01*
D11*
X490484Y122016D02*
X482516Y122016D01*
X482516Y131984D01*
X490484Y131984D01*
X490484Y122016D01*
X490484Y128728D02*
X482516Y128728D01*
X501516Y122016D02*
X509484Y122016D01*
X501516Y122016D02*
X501516Y131984D01*
X509484Y131984D01*
X509484Y122016D01*
X509484Y128728D02*
X501516Y128728D01*
M02*
