G04 EAGLE Gerber RS-274X export*
G75*
%MOMM*%
%FSLAX34Y34*%
%LPD*%
%INSolderpaste Top*%
%IPPOS*%
%AMOC8*
5,1,8,0,0,1.08239X$1,22.5*%
G01*
%ADD10C,0.501903*%
%ADD11C,0.507000*%
%ADD12C,0.512000*%
%ADD13C,0.510000*%
%ADD14C,0.500000*%
%ADD15C,0.600000*%


D10*
X78043Y97041D02*
X78043Y63959D01*
X63757Y63959D01*
X63757Y97041D01*
X78043Y97041D01*
X78043Y68727D02*
X63757Y68727D01*
X63757Y73495D02*
X78043Y73495D01*
X78043Y78263D02*
X63757Y78263D01*
X63757Y83031D02*
X78043Y83031D01*
X78043Y87799D02*
X63757Y87799D01*
X63757Y92567D02*
X78043Y92567D01*
X78043Y115959D02*
X78043Y149041D01*
X78043Y115959D02*
X63757Y115959D01*
X63757Y149041D01*
X78043Y149041D01*
X78043Y120727D02*
X63757Y120727D01*
X63757Y125495D02*
X78043Y125495D01*
X78043Y130263D02*
X63757Y130263D01*
X63757Y135031D02*
X78043Y135031D01*
X78043Y139799D02*
X63757Y139799D01*
X63757Y144567D02*
X78043Y144567D01*
X179043Y80441D02*
X179043Y47359D01*
X164757Y47359D01*
X164757Y80441D01*
X179043Y80441D01*
X179043Y52127D02*
X164757Y52127D01*
X164757Y56895D02*
X179043Y56895D01*
X179043Y61663D02*
X164757Y61663D01*
X164757Y66431D02*
X179043Y66431D01*
X179043Y71199D02*
X164757Y71199D01*
X164757Y75967D02*
X179043Y75967D01*
X179043Y99359D02*
X179043Y132441D01*
X179043Y99359D02*
X164757Y99359D01*
X164757Y132441D01*
X179043Y132441D01*
X179043Y104127D02*
X164757Y104127D01*
X164757Y108895D02*
X179043Y108895D01*
X179043Y113663D02*
X164757Y113663D01*
X164757Y118431D02*
X179043Y118431D01*
X179043Y123199D02*
X164757Y123199D01*
X164757Y127967D02*
X179043Y127967D01*
D11*
X20065Y146635D02*
X12135Y146635D01*
X12135Y156565D01*
X20065Y156565D01*
X20065Y146635D01*
X20065Y151451D02*
X12135Y151451D01*
X12135Y156267D02*
X20065Y156267D01*
X31135Y146635D02*
X39065Y146635D01*
X31135Y146635D02*
X31135Y156565D01*
X39065Y156565D01*
X39065Y146635D01*
X39065Y151451D02*
X31135Y151451D01*
X31135Y156267D02*
X39065Y156267D01*
X175935Y33565D02*
X183865Y33565D01*
X183865Y23635D01*
X175935Y23635D01*
X175935Y33565D01*
X175935Y28451D02*
X183865Y28451D01*
X183865Y33267D02*
X175935Y33267D01*
X164865Y33565D02*
X156935Y33565D01*
X164865Y33565D02*
X164865Y23635D01*
X156935Y23635D01*
X156935Y33565D01*
X156935Y28451D02*
X164865Y28451D01*
X164865Y33267D02*
X156935Y33267D01*
X141665Y33565D02*
X133735Y33565D01*
X141665Y33565D02*
X141665Y23635D01*
X133735Y23635D01*
X133735Y33565D01*
X133735Y28451D02*
X141665Y28451D01*
X141665Y33267D02*
X133735Y33267D01*
X122665Y33565D02*
X114735Y33565D01*
X122665Y33565D02*
X122665Y23635D01*
X114735Y23635D01*
X114735Y33565D01*
X114735Y28451D02*
X122665Y28451D01*
X122665Y33267D02*
X114735Y33267D01*
D12*
X114260Y111110D02*
X114260Y121990D01*
X127140Y121990D01*
X127140Y111110D01*
X114260Y111110D01*
X114260Y115974D02*
X127140Y115974D01*
X127140Y120838D02*
X114260Y120838D01*
X127140Y81490D02*
X127140Y70610D01*
X114260Y70610D01*
X114260Y81490D01*
X127140Y81490D01*
X127140Y75474D02*
X114260Y75474D01*
X114260Y80338D02*
X127140Y80338D01*
X10260Y107710D02*
X10260Y118590D01*
X23140Y118590D01*
X23140Y107710D01*
X10260Y107710D01*
X10260Y112574D02*
X23140Y112574D01*
X23140Y117438D02*
X10260Y117438D01*
X23140Y78090D02*
X23140Y67210D01*
X10260Y67210D01*
X10260Y78090D01*
X23140Y78090D01*
X23140Y72074D02*
X10260Y72074D01*
X10260Y76938D02*
X23140Y76938D01*
D11*
X357935Y81835D02*
X357935Y89765D01*
X367865Y89765D01*
X367865Y81835D01*
X357935Y81835D01*
X357935Y86651D02*
X367865Y86651D01*
X357935Y70765D02*
X357935Y62835D01*
X357935Y70765D02*
X367865Y70765D01*
X367865Y62835D01*
X357935Y62835D01*
X357935Y67651D02*
X367865Y67651D01*
D13*
X78350Y167700D02*
X78350Y168600D01*
X78350Y167700D02*
X61450Y167700D01*
X61450Y168600D01*
X78350Y168600D01*
X78350Y180400D02*
X78350Y181300D01*
X78350Y180400D02*
X61450Y180400D01*
X61450Y181300D01*
X78350Y181300D01*
X78350Y193100D02*
X78350Y194000D01*
X78350Y193100D02*
X61450Y193100D01*
X61450Y194000D01*
X78350Y194000D01*
X78350Y205800D02*
X78350Y206700D01*
X78350Y205800D02*
X61450Y205800D01*
X61450Y206700D01*
X78350Y206700D01*
X26350Y206700D02*
X26350Y205800D01*
X9450Y205800D01*
X9450Y206700D01*
X26350Y206700D01*
X26350Y194000D02*
X26350Y193100D01*
X9450Y193100D01*
X9450Y194000D01*
X26350Y194000D01*
X26350Y181300D02*
X26350Y180400D01*
X9450Y180400D01*
X9450Y181300D01*
X26350Y181300D01*
X26350Y168600D02*
X26350Y167700D01*
X9450Y167700D01*
X9450Y168600D01*
X26350Y168600D01*
D14*
X104540Y188900D02*
X104540Y144900D01*
X104540Y188900D02*
X124540Y188900D01*
X124540Y144900D01*
X104540Y144900D01*
X104540Y149650D02*
X124540Y149650D01*
X124540Y154400D02*
X104540Y154400D01*
X104540Y159150D02*
X124540Y159150D01*
X124540Y163900D02*
X104540Y163900D01*
X104540Y168650D02*
X124540Y168650D01*
X124540Y173400D02*
X104540Y173400D01*
X104540Y178150D02*
X124540Y178150D01*
X124540Y182900D02*
X104540Y182900D01*
X104540Y187650D02*
X124540Y187650D01*
X159460Y188900D02*
X159460Y144900D01*
X159460Y188900D02*
X179460Y188900D01*
X179460Y144900D01*
X159460Y144900D01*
X159460Y149650D02*
X179460Y149650D01*
X179460Y154400D02*
X159460Y154400D01*
X159460Y159150D02*
X179460Y159150D01*
X179460Y163900D02*
X159460Y163900D01*
X159460Y168650D02*
X179460Y168650D01*
X179460Y173400D02*
X159460Y173400D01*
X159460Y178150D02*
X179460Y178150D01*
X179460Y182900D02*
X159460Y182900D01*
X159460Y187650D02*
X179460Y187650D01*
D13*
X242800Y85550D02*
X243700Y85550D01*
X242800Y85550D02*
X242800Y102450D01*
X243700Y102450D01*
X243700Y85550D01*
X243700Y90395D02*
X242800Y90395D01*
X242800Y95240D02*
X243700Y95240D01*
X243700Y100085D02*
X242800Y100085D01*
X268200Y137550D02*
X269100Y137550D01*
X268200Y137550D02*
X268200Y154450D01*
X269100Y154450D01*
X269100Y137550D01*
X269100Y142395D02*
X268200Y142395D01*
X268200Y147240D02*
X269100Y147240D01*
X269100Y152085D02*
X268200Y152085D01*
X231000Y85550D02*
X230100Y85550D01*
X230100Y102450D01*
X231000Y102450D01*
X231000Y85550D01*
X231000Y90395D02*
X230100Y90395D01*
X230100Y95240D02*
X231000Y95240D01*
X231000Y100085D02*
X230100Y100085D01*
X255500Y85550D02*
X256400Y85550D01*
X255500Y85550D02*
X255500Y102450D01*
X256400Y102450D01*
X256400Y85550D01*
X256400Y90395D02*
X255500Y90395D01*
X255500Y95240D02*
X256400Y95240D01*
X256400Y100085D02*
X255500Y100085D01*
X268200Y85550D02*
X269100Y85550D01*
X268200Y85550D02*
X268200Y102450D01*
X269100Y102450D01*
X269100Y85550D01*
X269100Y90395D02*
X268200Y90395D01*
X268200Y95240D02*
X269100Y95240D01*
X269100Y100085D02*
X268200Y100085D01*
X256400Y137550D02*
X255500Y137550D01*
X255500Y154450D01*
X256400Y154450D01*
X256400Y137550D01*
X256400Y142395D02*
X255500Y142395D01*
X255500Y147240D02*
X256400Y147240D01*
X256400Y152085D02*
X255500Y152085D01*
X280900Y137550D02*
X281800Y137550D01*
X280900Y137550D02*
X280900Y154450D01*
X281800Y154450D01*
X281800Y137550D01*
X281800Y142395D02*
X280900Y142395D01*
X280900Y147240D02*
X281800Y147240D01*
X281800Y152085D02*
X280900Y152085D01*
X293600Y137550D02*
X294500Y137550D01*
X293600Y137550D02*
X293600Y154450D01*
X294500Y154450D01*
X294500Y137550D01*
X294500Y142395D02*
X293600Y142395D01*
X293600Y147240D02*
X294500Y147240D01*
X294500Y152085D02*
X293600Y152085D01*
X293600Y85550D02*
X294500Y85550D01*
X293600Y85550D02*
X293600Y102450D01*
X294500Y102450D01*
X294500Y85550D01*
X294500Y90395D02*
X293600Y90395D01*
X293600Y95240D02*
X294500Y95240D01*
X294500Y100085D02*
X293600Y100085D01*
X319000Y137550D02*
X319900Y137550D01*
X319000Y137550D02*
X319000Y154450D01*
X319900Y154450D01*
X319900Y137550D01*
X319900Y142395D02*
X319000Y142395D01*
X319000Y147240D02*
X319900Y147240D01*
X319900Y152085D02*
X319000Y152085D01*
X281800Y85550D02*
X280900Y85550D01*
X280900Y102450D01*
X281800Y102450D01*
X281800Y85550D01*
X281800Y90395D02*
X280900Y90395D01*
X280900Y95240D02*
X281800Y95240D01*
X281800Y100085D02*
X280900Y100085D01*
X306300Y85550D02*
X307200Y85550D01*
X306300Y85550D02*
X306300Y102450D01*
X307200Y102450D01*
X307200Y85550D01*
X307200Y90395D02*
X306300Y90395D01*
X306300Y95240D02*
X307200Y95240D01*
X307200Y100085D02*
X306300Y100085D01*
X306300Y137550D02*
X307200Y137550D01*
X306300Y137550D02*
X306300Y154450D01*
X307200Y154450D01*
X307200Y137550D01*
X307200Y142395D02*
X306300Y142395D01*
X306300Y147240D02*
X307200Y147240D01*
X307200Y152085D02*
X306300Y152085D01*
X319000Y85550D02*
X319900Y85550D01*
X319000Y85550D02*
X319000Y102450D01*
X319900Y102450D01*
X319900Y85550D01*
X319900Y90395D02*
X319000Y90395D01*
X319000Y95240D02*
X319900Y95240D01*
X319900Y100085D02*
X319000Y100085D01*
X243700Y137550D02*
X242800Y137550D01*
X242800Y154450D01*
X243700Y154450D01*
X243700Y137550D01*
X243700Y142395D02*
X242800Y142395D01*
X242800Y147240D02*
X243700Y147240D01*
X243700Y152085D02*
X242800Y152085D01*
X231000Y137550D02*
X230100Y137550D01*
X230100Y154450D01*
X231000Y154450D01*
X231000Y137550D01*
X231000Y142395D02*
X230100Y142395D01*
X230100Y147240D02*
X231000Y147240D01*
X231000Y152085D02*
X230100Y152085D01*
D11*
X391965Y42465D02*
X391965Y34535D01*
X382035Y34535D01*
X382035Y42465D01*
X391965Y42465D01*
X391965Y39351D02*
X382035Y39351D01*
X391965Y53535D02*
X391965Y61465D01*
X391965Y53535D02*
X382035Y53535D01*
X382035Y61465D01*
X391965Y61465D01*
X391965Y58351D02*
X382035Y58351D01*
X415965Y42465D02*
X415965Y34535D01*
X406035Y34535D01*
X406035Y42465D01*
X415965Y42465D01*
X415965Y39351D02*
X406035Y39351D01*
X415965Y53535D02*
X415965Y61465D01*
X415965Y53535D02*
X406035Y53535D01*
X406035Y61465D01*
X415965Y61465D01*
X415965Y58351D02*
X406035Y58351D01*
D12*
X415560Y163560D02*
X415560Y178440D01*
X426440Y178440D01*
X426440Y163560D01*
X415560Y163560D01*
X415560Y168424D02*
X426440Y168424D01*
X426440Y173288D02*
X415560Y173288D01*
X415560Y178152D02*
X426440Y178152D01*
X365560Y178440D02*
X365560Y163560D01*
X365560Y178440D02*
X376440Y178440D01*
X376440Y163560D01*
X365560Y163560D01*
X365560Y168424D02*
X376440Y168424D01*
X376440Y173288D02*
X365560Y173288D01*
X365560Y178152D02*
X376440Y178152D01*
X416560Y141440D02*
X416560Y126560D01*
X416560Y141440D02*
X427440Y141440D01*
X427440Y126560D01*
X416560Y126560D01*
X416560Y131424D02*
X427440Y131424D01*
X427440Y136288D02*
X416560Y136288D01*
X416560Y141152D02*
X427440Y141152D01*
X366560Y141440D02*
X366560Y126560D01*
X366560Y141440D02*
X377440Y141440D01*
X377440Y126560D01*
X366560Y126560D01*
X366560Y131424D02*
X377440Y131424D01*
X377440Y136288D02*
X366560Y136288D01*
X366560Y141152D02*
X377440Y141152D01*
D15*
X451000Y90400D02*
X467000Y90400D01*
X503000Y90400D02*
X519000Y90400D01*
X467000Y103100D02*
X451000Y103100D01*
X451000Y77700D02*
X467000Y77700D01*
X467000Y65000D02*
X451000Y65000D01*
X503000Y103100D02*
X519000Y103100D01*
X519000Y77700D02*
X503000Y77700D01*
X503000Y65000D02*
X519000Y65000D01*
X467000Y39600D02*
X451000Y39600D01*
X503000Y39600D02*
X519000Y39600D01*
X467000Y52300D02*
X451000Y52300D01*
X451000Y26900D02*
X467000Y26900D01*
X503000Y52300D02*
X519000Y52300D01*
X519000Y26900D02*
X503000Y26900D01*
D11*
X423465Y94965D02*
X415535Y94965D01*
X423465Y94965D02*
X423465Y85035D01*
X415535Y85035D01*
X415535Y94965D01*
X415535Y89851D02*
X423465Y89851D01*
X423465Y94667D02*
X415535Y94667D01*
X404465Y94965D02*
X396535Y94965D01*
X404465Y94965D02*
X404465Y85035D01*
X396535Y85035D01*
X396535Y94965D01*
X396535Y89851D02*
X404465Y89851D01*
X404465Y94667D02*
X396535Y94667D01*
X482535Y122035D02*
X490465Y122035D01*
X482535Y122035D02*
X482535Y131965D01*
X490465Y131965D01*
X490465Y122035D01*
X490465Y126851D02*
X482535Y126851D01*
X482535Y131667D02*
X490465Y131667D01*
X501535Y122035D02*
X509465Y122035D01*
X501535Y122035D02*
X501535Y131965D01*
X509465Y131965D01*
X509465Y122035D01*
X509465Y126851D02*
X501535Y126851D01*
X501535Y131667D02*
X509465Y131667D01*
M02*
