M48
;GenerationSoftware,Autodesk,EAGLE,9.6.2*%
;CreationDate,2021-09-24T07:18:45Z*%
FMAT,2
ICI,OFF
METRIC,TZ,000.000
T5C0.305
T4C0.350
T3C0.750
T2C0.813
T1C1.016
%
G90
M71
T1
X21150Y3380
X23690Y3380
X26230Y3380
X28770Y3380
X31310Y3380
X33850Y3380
X33850Y18620
X31310Y18620
X28770Y18620
X26230Y18620
X23690Y18620
X21150Y18620
T2
X2560Y3070
X8560Y3070
X6560Y3070
X4560Y3070
T3
X51340Y16200
X46260Y16200
X48800Y16200
T4
X38500Y7400
X32800Y13100
X37026Y15200
X38800Y714
X38800Y2700
X25600Y13000
X26200Y6500
X41400Y10787
X15300Y5000
X19700Y4500
X27200Y7700
X30300Y7400
X32500Y5300
X47600Y4600
X44200Y3000
X44100Y5500
T5
X31468Y10944
X31083Y12973
X45913Y12073
M30